<svg width="25" height="25" viewBox="0 0 25 25" fill="none" xmlns="http://www.w3.org/2000/svg">
<path d="M8.11265 16.3211L8.054 7.90127C8.05121 7.56887 8.1426 7.24247 8.31761 6.95986C8.49262 6.67724 8.74409 6.44997 9.0429 6.30434C9.39747 6.13384 9.7928 6.06636 10.1838 6.10961C10.5749 6.15285 10.9459 6.30508 11.2547 6.54894L16.3839 10.7233C16.5756 10.8872 16.7299 11.0904 16.8363 11.3191C16.9427 11.5479 16.9987 11.7968 17.0004 12.0491C17.0022 12.3013 16.9497 12.551 16.8465 12.7812C16.7433 13.0114 16.5919 13.2167 16.4024 13.3833L11.3318 17.6287C11.0265 17.8768 10.6576 18.0342 10.2672 18.0829C9.87683 18.1316 9.4806 18.0696 9.1237 17.9041C8.82288 17.7626 8.56827 17.5389 8.38934 17.2587C8.21042 16.9786 8.11448 16.6535 8.11265 16.3211Z" fill="#58DCFF"/>
</svg>
