<svg width="93" height="45" viewBox="0 0 93 45" fill="none" xmlns="http://www.w3.org/2000/svg">
<g filter="url(#filter0_d_964_430)">
<rect x="8.2" y="8.2" width="72.6" height="24.6" rx="9.8" stroke="url(#paint0_linear_964_430)" stroke-width="0.4" shape-rendering="crispEdges"/>
<path d="M15.8511 20.092H20.0271V21.376H15.8511V20.092ZM15.9711 23.692H20.7111V25H14.4111V16.6H20.5431V17.908H15.9711V23.692ZM24.4082 25L21.6602 18.592H23.2202L25.5842 24.244H24.8162L27.2642 18.592H28.7042L25.9562 25H24.4082ZM32.8259 25.084C32.1699 25.084 31.5859 24.944 31.0739 24.664C30.5619 24.376 30.1579 23.984 29.8619 23.488C29.5659 22.992 29.4179 22.428 29.4179 21.796C29.4179 21.156 29.5659 20.592 29.8619 20.104C30.1579 19.608 30.5619 19.22 31.0739 18.94C31.5859 18.66 32.1699 18.52 32.8259 18.52C33.4899 18.52 34.0779 18.66 34.5899 18.94C35.1099 19.22 35.5139 19.604 35.8019 20.092C36.0979 20.58 36.2459 21.148 36.2459 21.796C36.2459 22.428 36.0979 22.992 35.8019 23.488C35.5139 23.984 35.1099 24.376 34.5899 24.664C34.0779 24.944 33.4899 25.084 32.8259 25.084ZM32.8259 23.8C33.1939 23.8 33.5219 23.72 33.8099 23.56C34.0979 23.4 34.3219 23.168 34.4819 22.864C34.6499 22.56 34.7339 22.204 34.7339 21.796C34.7339 21.38 34.6499 21.024 34.4819 20.728C34.3219 20.424 34.0979 20.192 33.8099 20.032C33.5219 19.872 33.1979 19.792 32.8379 19.792C32.4699 19.792 32.1419 19.872 31.8539 20.032C31.5739 20.192 31.3499 20.424 31.1819 20.728C31.0139 21.024 30.9299 21.38 30.9299 21.796C30.9299 22.204 31.0139 22.56 31.1819 22.864C31.3499 23.168 31.5739 23.4 31.8539 23.56C32.1419 23.72 32.4659 23.8 32.8259 23.8ZM38.1603 25V16.096H39.6603V25H38.1603ZM44.821 25.084C44.277 25.084 43.797 24.984 43.381 24.784C42.965 24.576 42.641 24.264 42.409 23.848C42.177 23.424 42.061 22.892 42.061 22.252V18.592H43.561V22.048C43.561 22.624 43.689 23.056 43.945 23.344C44.209 23.624 44.581 23.764 45.061 23.764C45.413 23.764 45.717 23.692 45.973 23.548C46.237 23.404 46.441 23.188 46.585 22.9C46.737 22.612 46.813 22.256 46.813 21.832V18.592H48.313V25H46.885V23.272L47.137 23.8C46.921 24.216 46.605 24.536 46.189 24.76C45.773 24.976 45.317 25.084 44.821 25.084ZM53.169 25.084C52.465 25.084 51.921 24.904 51.537 24.544C51.153 24.176 50.961 23.636 50.961 22.924V17.176H52.461V22.888C52.461 23.192 52.537 23.428 52.689 23.596C52.849 23.764 53.069 23.848 53.349 23.848C53.685 23.848 53.965 23.76 54.189 23.584L54.609 24.652C54.433 24.796 54.217 24.904 53.961 24.976C53.705 25.048 53.441 25.084 53.169 25.084ZM49.905 19.84V18.64H54.177V19.84H49.905ZM56.3229 25V18.592H57.8229V25H56.3229ZM57.0789 17.536C56.7989 17.536 56.5669 17.448 56.3829 17.272C56.2069 17.096 56.1189 16.884 56.1189 16.636C56.1189 16.38 56.2069 16.168 56.3829 16C56.5669 15.824 56.7989 15.736 57.0789 15.736C57.3589 15.736 57.5869 15.82 57.7629 15.988C57.9469 16.148 58.0389 16.352 58.0389 16.6C58.0389 16.864 57.9509 17.088 57.7749 17.272C57.5989 17.448 57.3669 17.536 57.0789 17.536ZM63.1517 25.084C62.4957 25.084 61.9117 24.944 61.3997 24.664C60.8877 24.376 60.4837 23.984 60.1877 23.488C59.8917 22.992 59.7437 22.428 59.7437 21.796C59.7437 21.156 59.8917 20.592 60.1877 20.104C60.4837 19.608 60.8877 19.22 61.3997 18.94C61.9117 18.66 62.4957 18.52 63.1517 18.52C63.8157 18.52 64.4037 18.66 64.9157 18.94C65.4357 19.22 65.8397 19.604 66.1277 20.092C66.4237 20.58 66.5717 21.148 66.5717 21.796C66.5717 22.428 66.4237 22.992 66.1277 23.488C65.8397 23.984 65.4357 24.376 64.9157 24.664C64.4037 24.944 63.8157 25.084 63.1517 25.084ZM63.1517 23.8C63.5197 23.8 63.8477 23.72 64.1357 23.56C64.4237 23.4 64.6477 23.168 64.8077 22.864C64.9757 22.56 65.0597 22.204 65.0597 21.796C65.0597 21.38 64.9757 21.024 64.8077 20.728C64.6477 20.424 64.4237 20.192 64.1357 20.032C63.8477 19.872 63.5237 19.792 63.1637 19.792C62.7957 19.792 62.4677 19.872 62.1797 20.032C61.8997 20.192 61.6757 20.424 61.5077 20.728C61.3397 21.024 61.2557 21.38 61.2557 21.796C61.2557 22.204 61.3397 22.56 61.5077 22.864C61.6757 23.168 61.8997 23.4 62.1797 23.56C62.4677 23.72 62.7917 23.8 63.1517 23.8ZM72.122 18.52C72.634 18.52 73.09 18.62 73.49 18.82C73.898 19.02 74.218 19.328 74.45 19.744C74.682 20.152 74.798 20.68 74.798 21.328V25H73.298V21.52C73.298 20.952 73.162 20.528 72.89 20.248C72.626 19.968 72.254 19.828 71.774 19.828C71.422 19.828 71.11 19.9 70.838 20.044C70.566 20.188 70.354 20.404 70.202 20.692C70.058 20.972 69.986 21.328 69.986 21.76V25H68.486V18.592H69.914V20.32L69.662 19.792C69.886 19.384 70.21 19.072 70.634 18.856C71.066 18.632 71.562 18.52 72.122 18.52Z" fill="#07D1FD"/>
</g>
<defs>
<filter id="filter0_d_964_430" x="0" y="0" width="93" height="45" filterUnits="userSpaceOnUse" color-interpolation-filters="sRGB">
<feFlood flood-opacity="0" result="BackgroundImageFix"/>
<feColorMatrix in="SourceAlpha" type="matrix" values="0 0 0 0 0 0 0 0 0 0 0 0 0 0 0 0 0 0 127 0" result="hardAlpha"/>
<feOffset dx="2" dy="2"/>
<feGaussianBlur stdDeviation="5"/>
<feComposite in2="hardAlpha" operator="out"/>
<feColorMatrix type="matrix" values="0 0 0 0 0.345833 0 0 0 0 0.862281 0 0 0 0 1 0 0 0 0.25 0"/>
<feBlend mode="normal" in2="BackgroundImageFix" result="effect1_dropShadow_964_430"/>
<feBlend mode="normal" in="SourceGraphic" in2="effect1_dropShadow_964_430" result="shape"/>
</filter>
<linearGradient id="paint0_linear_964_430" x1="11.5181" y1="8" x2="85.4548" y2="46.522" gradientUnits="userSpaceOnUse">
<stop stop-color="#04A3FC" stop-opacity="0.09"/>
<stop offset="1" stop-color="#041DFF" stop-opacity="0.51"/>
</linearGradient>
</defs>
</svg>
