<svg width="130" height="132" viewBox="0 0 130 132" fill="none" xmlns="http://www.w3.org/2000/svg">
<circle cx="66.1208" cy="66.1207" r="61.6379" fill="#FDDCDC" fill-opacity="0.67"/>
<g filter="url(#filter0_i_282_51)">
<path d="M112.069 67.2413C112.069 73.1281 110.909 78.9573 108.656 84.3961C106.404 89.8348 103.102 94.7765 98.9391 98.9392C94.7764 103.102 89.8347 106.404 84.3959 108.657C78.9572 110.909 73.128 112.069 67.2412 112.069L67.2412 67.2413H112.069Z" fill="#00CCFF" fill-opacity="0.63"/>
</g>
<g filter="url(#filter1_i_282_51)">
<path d="M67.2412 20.1725C73.128 20.1725 78.9572 21.332 84.3959 23.5848C89.8347 25.8376 94.7764 29.1395 98.9391 33.3022C103.102 37.4648 106.404 42.4065 108.656 47.8453C110.909 53.284 112.069 59.1132 112.069 65.0001L67.2412 65V20.1725Z" fill="#EEBBAE" fill-opacity="0.6"/>
</g>
<g filter="url(#filter2_i_282_51)">
<path d="M65 112.069C59.1132 112.069 53.284 110.909 47.8453 108.657C42.4065 106.404 37.4648 103.102 33.3022 98.9392C29.1395 94.7765 25.8376 89.8348 23.5848 84.3961C21.332 78.9573 20.1725 73.1281 20.1725 67.2413L65 67.2413V112.069Z" fill="#EEBBAE" fill-opacity="0.69"/>
</g>
<g filter="url(#filter3_i_282_51)">
<path d="M20.1725 65C20.1725 59.1132 21.332 53.284 23.5848 47.8453C25.8376 42.4065 29.1395 37.4648 33.3022 33.3022C37.4648 29.1395 42.4065 25.8376 47.8453 23.5848C53.284 21.332 59.1132 20.1725 65.0001 20.1725L65 65L20.1725 65Z" fill="#EEBBAE" fill-opacity="0.55"/>
</g>
<g filter="url(#filter4_i_282_51)">
<path d="M83.8897 23.3787C89.3555 25.565 94.3372 28.8065 98.5502 32.918C102.763 37.0296 106.125 41.9307 108.444 47.3416L67.2412 65L83.8897 23.3787Z" fill="#7DED8F"/>
</g>
<g filter="url(#filter5_i_282_51)">
<path d="M25.1845 44.4031C28.9542 37.116 34.6514 31.0032 41.6556 26.7307L65 65L25.1845 44.4031Z" fill="#FFC328" fill-opacity="0.98"/>
</g>
<g filter="url(#filter6_i_282_51)">
<path d="M48.3515 108.863C41.3236 106.051 35.1219 101.506 30.3248 95.6514L65 67.2413L48.3515 108.863Z" fill="#D05EBC" fill-opacity="0.78"/>
</g>
<g filter="url(#filter7_i_282_51)">
<path d="M108.696 102.956C108.92 103.228 109.135 103.29 109.338 103.14L109.79 103.688C109.551 103.93 109.369 104.09 109.245 104.169C109.121 104.248 108.979 104.274 108.819 104.247C108.803 104.31 108.814 104.454 108.853 104.679L108.868 104.791L108.201 105.467C107.959 105.382 107.797 105.348 107.716 105.364C107.73 105.538 107.699 105.688 107.622 105.813C107.545 105.938 107.382 106.127 107.134 106.378L106.337 106.194L105.949 105.723C106.102 105.512 106.066 105.27 105.841 104.997C105.747 104.884 105.636 104.785 105.505 104.7C105.433 104.727 105.363 104.773 105.298 104.839L104.565 104.732L104.107 104.177L104.29 103.992L102.805 102.848L102.608 103.047L101.875 102.94L100.978 101.852L102.931 99.8738L103.664 99.9809L104.561 101.069L104.203 101.432L105.77 102.676L106.137 102.73L105.863 102.398L106.074 102.184L105.103 100.365L104.503 100.279L103.606 99.1906L105.559 97.2124L106.292 97.3195L107.189 98.4074L106.732 98.87L107.788 100.916L108.121 100.961L108.579 101.516C108.401 101.706 108.332 101.941 108.373 102.22C108.414 102.5 108.522 102.745 108.696 102.956ZM107.352 101.216C107.108 101.463 107.023 101.771 107.096 102.141C106.902 102.167 106.701 102.163 106.492 102.129L106.211 102.413L106.339 102.568C106.483 102.534 106.617 102.593 106.74 102.742C106.863 102.891 106.949 103.125 106.997 103.444C107.041 103.758 107.047 103.969 107.016 104.077C106.921 104.097 106.734 104.069 106.456 103.992C106.173 103.91 105.973 103.797 105.854 103.653C105.731 103.504 105.689 103.348 105.727 103.187L105.6 103.032L105.319 103.317C105.342 103.501 105.335 103.717 105.297 103.963C104.984 103.864 104.697 103.933 104.436 104.169L104.595 104.362C104.794 104.208 105.041 104.184 105.336 104.291C105.626 104.393 105.863 104.555 106.045 104.776C106.334 105.126 106.399 105.419 106.241 105.654L106.431 105.886C106.652 105.663 106.771 105.453 106.788 105.255C106.802 105.157 106.796 105.045 106.77 104.92C106.997 104.945 107.221 104.982 107.442 105.032L107.836 104.634L107.803 103.874C108.032 103.944 108.222 103.935 108.374 103.848C108.498 103.769 108.612 103.678 108.715 103.573L108.524 103.342C108.303 103.49 108.048 103.39 107.76 103.04C107.577 102.819 107.453 102.543 107.387 102.213C107.317 101.878 107.359 101.61 107.511 101.409L107.352 101.216ZM106.081 98.2835L105.54 97.6277L103.981 99.2074L104.521 99.8632L104.915 99.4648L106.271 101.985L106.418 101.836C106.618 101.879 106.756 101.89 106.833 101.869C106.82 101.665 106.87 101.477 106.985 101.304L105.66 98.7105L106.081 98.2835ZM105.069 103.655C105.082 103.567 105.082 103.415 105.069 103.202L105.196 103.074L103.06 101.343L103.453 100.945L102.913 100.289L101.353 101.869L101.894 102.525L102.315 102.098L104.519 103.801C104.682 103.675 104.865 103.626 105.069 103.655Z" fill="#EE4817"/>
<path d="M93.0841 109.457L96.6863 106.135L97.4147 106.275L98.2505 107.386L97.8682 107.739L99.2826 109.006C99.3227 108.96 99.3893 108.894 99.4825 108.808L100.211 108.949L100.732 109.443C100.467 109.687 100.431 109.937 100.624 110.192C100.74 110.347 100.815 110.408 100.849 110.376C100.933 110.3 100.959 110.23 100.929 110.168L101.278 110.103L102.007 110.243C102.199 110.499 102.283 110.742 102.257 110.973C102.237 111.2 102.136 111.396 101.955 111.564C101.778 111.726 101.525 111.847 101.194 111.927C101.113 112.227 100.987 112.456 100.815 112.614C100.545 112.863 100.192 112.967 99.7558 112.928C99.3242 112.884 98.9544 112.751 98.6466 112.53L98.7088 112.215C98.7881 112.232 98.8645 112.207 98.938 112.139C99.0998 111.99 99.1025 111.811 98.9461 111.604L98.7858 111.44C98.6526 111.473 98.5174 111.552 98.3801 111.679C98.2478 111.801 98.1524 111.961 98.0941 112.159C98.0357 112.358 98.0446 112.557 98.1207 112.757L98.4114 112.746L99.1397 112.887C99.2595 113.201 99.2847 113.493 99.2151 113.765C99.1545 114.037 99.0335 114.257 98.8522 114.424C98.6757 114.587 98.4394 114.692 98.1431 114.74C98.0228 115.076 97.8695 115.331 97.6833 115.502C97.4284 115.737 97.1028 115.812 96.7063 115.726C96.3147 115.636 96.0107 115.447 95.7942 115.16L95.9079 114.798C95.9578 114.842 96.0244 114.826 96.1077 114.749C96.1959 114.668 96.2311 114.527 96.2133 114.327C96.2004 114.122 96.1457 113.933 96.049 113.761L95.2986 113.641L94.9539 112.984C95.1647 112.79 95.336 112.659 95.4678 112.591L94.5353 110.69L93.9199 110.567L93.0841 109.457ZM98.3489 110.314C98.365 110.236 98.3639 110.124 98.3456 109.978L98.5368 109.802C98.6914 109.831 98.8125 109.832 98.9003 109.805C98.8918 109.75 98.897 109.668 98.9157 109.561L96.7228 107.59L97.1419 107.204L96.6488 106.549L93.4583 109.491L93.9513 110.146L94.3704 109.759L95.7178 112.51C95.8127 112.503 95.8908 112.508 95.9523 112.524C95.9831 112.432 96.0016 112.302 96.0078 112.134L96.199 111.958C96.3144 112.023 96.4061 112.051 96.4743 112.042C96.5082 111.668 96.7457 111.278 97.1868 110.871C97.6328 110.46 98.0202 110.274 98.3489 110.314ZM100.227 111.519C100.579 111.501 100.853 111.402 101.049 111.221C101.25 111.036 101.278 110.775 101.133 110.439C101.125 110.483 101.099 110.526 101.055 110.566C100.868 110.738 100.635 110.786 100.354 110.711C100.074 110.626 99.8665 110.493 99.7302 110.312C99.4455 109.934 99.422 109.599 99.6595 109.308L99.4858 109.144C99.3926 109.229 99.3256 109.3 99.2846 109.356C99.2445 109.402 99.2146 109.484 99.195 109.601C99.1714 109.713 99.1816 109.848 99.2257 110.006C99.0969 110.089 98.9014 110.116 98.639 110.087C98.6568 110.188 98.6592 110.285 98.6463 110.378C98.6342 110.461 98.6068 110.541 98.5641 110.616C98.1805 110.537 97.7755 110.693 97.3491 111.087C96.9227 111.48 96.7151 111.888 96.7262 112.311C96.5974 112.393 96.4337 112.391 96.235 112.304C96.2216 112.55 96.1672 112.754 96.0719 112.914C95.9396 112.838 95.8191 112.804 95.7104 112.814C95.6026 112.815 95.5222 112.835 95.4691 112.874C95.4121 112.909 95.3395 112.967 95.2513 113.048L95.3662 113.267C95.5194 113.162 95.668 113.133 95.8119 113.181C95.9567 113.219 96.0992 113.331 96.2395 113.518C96.3798 113.704 96.46 113.959 96.48 114.284C96.5009 114.598 96.4206 114.839 96.2393 115.007L96.1123 115.07C96.3845 115.288 96.6161 115.309 96.8073 115.132C97.0033 114.952 97.1435 114.669 97.2277 114.285L97.2718 114.244C97.5748 114.271 97.8095 114.208 97.9762 114.055C98.1967 113.851 98.2836 113.537 98.2369 113.11C98.2137 113.168 98.1777 113.219 98.1286 113.264C97.8542 113.517 97.6007 113.489 97.3682 113.181C97.1357 112.872 97.0464 112.543 97.1004 112.196C97.1503 111.843 97.2978 111.554 97.5429 111.328C97.7879 111.102 98.0717 110.993 98.3943 111.003C98.7128 111.007 98.9883 111.163 99.2208 111.472C99.4533 111.781 99.4323 112.062 99.1579 112.315L98.9941 112.412C99.3594 112.545 99.6572 112.504 99.8876 112.292C100.059 112.134 100.158 111.89 100.183 111.559L100.227 111.519ZM96.3808 111.289L95.2746 108.926L95.8186 108.424L97.7335 110.042L96.3808 111.289ZM96.4132 109.297L96.9376 110.424L97.3272 110.065L96.4132 109.297Z" fill="#EE4817"/>
<path d="M86.2353 114.643L86.1704 114.69L85.4328 114.482L84.6527 113.308L87.1191 111.53L87.8567 111.738L88.6368 112.912L88.15 113.263L89.1845 114.821L89.2656 114.763L90.0032 114.97L90.4071 115.578C90.2016 115.726 90.094 115.865 90.0844 115.995C90.0766 116.116 90.1261 116.257 90.2331 116.418L90.316 116.543C90.5041 116.826 90.6042 117.115 90.6163 117.41C90.6338 117.702 90.5721 117.976 90.4312 118.233C90.1563 118.711 89.7836 119.119 89.3131 119.458C88.8479 119.793 88.3699 120.019 87.8789 120.134C87.397 120.252 86.9203 120.25 86.4487 120.13C85.9771 120.01 85.6141 119.759 85.3596 119.375L85.0609 118.925L85.9533 118.282C86.1286 118.378 86.2544 118.423 86.3306 118.417C86.3318 118.178 86.4459 117.964 86.6728 117.776C86.7503 117.712 86.8782 117.616 87.0567 117.487L87.7943 117.695L88.082 118.128C88.1732 117.988 88.2125 117.837 88.2 117.674L87.7246 117.536L87.3429 116.961C87.4203 116.897 87.5085 116.813 87.6073 116.709L86.2353 114.643ZM89.2521 116.386C88.9533 115.936 88.9825 115.582 89.3394 115.325L89.2067 115.125C88.9741 115.293 88.8461 115.479 88.8228 115.685C88.8164 115.772 88.8164 115.862 88.8228 115.956C88.6708 116.016 88.4911 116.023 88.2836 115.975C88.2794 116.101 88.2239 116.264 88.1169 116.465C88.0117 116.655 87.8781 116.822 87.7161 116.963L87.8323 117.138L88.1243 116.927L88.2848 117.169C88.4692 117.447 88.5228 117.72 88.4456 117.989C88.3701 118.249 88.2378 118.447 88.0484 118.583C87.8591 118.72 87.6719 118.793 87.4868 118.803C87.3034 118.804 87.1545 118.718 87.0402 118.546C86.9812 118.457 86.9621 118.368 86.983 118.279C87.0056 118.181 87.0548 118.105 87.1305 118.05L86.9977 117.85C86.9004 117.92 86.8283 117.98 86.7816 118.03C86.7312 118.075 86.683 118.159 86.6371 118.282C86.5928 118.396 86.577 118.535 86.5895 118.698C86.4231 118.761 86.2293 118.728 86.0083 118.6L85.4485 119.003L85.5813 119.203C85.7804 119.503 86.0392 119.682 86.3576 119.74C86.6814 119.794 87.0025 119.76 87.3209 119.637C87.6393 119.515 87.9688 119.33 88.3096 119.085C88.8342 118.707 89.2078 118.294 89.4303 117.846C89.6545 117.389 89.6209 116.941 89.3295 116.502L89.2521 116.386ZM85.9918 113.734L87.7954 116.45C87.9456 116.219 88.0385 115.979 88.0741 115.732L88.212 115.633C88.3542 115.678 88.4633 115.698 88.5395 115.692L88.5572 115.556C88.5712 115.505 88.588 115.452 88.6074 115.397L87.0141 112.998L87.5171 112.635L87.0469 111.927L85.0348 113.377L85.505 114.085L85.9918 113.734Z" fill="#EE4817"/>
<path d="M108.943 93.2149L110.54 88.5826L111.253 88.3502L112.526 88.9067L112.357 89.3983L114.219 89.8092C114.232 89.7498 114.259 89.6603 114.301 89.5405L115.014 89.3081L115.712 89.4829C115.595 89.8232 115.683 90.0575 115.976 90.1856C116.153 90.263 116.25 90.2796 116.265 90.2355C116.302 90.1284 116.292 90.0552 116.235 90.0159L116.514 89.7894L117.226 89.557C117.52 89.6851 117.71 89.8555 117.799 90.0681C117.889 90.2745 117.894 90.4942 117.814 90.7274C117.736 90.9543 117.569 91.1825 117.314 91.412C117.387 91.7119 117.385 91.9722 117.309 92.1927C117.189 92.5394 116.926 92.8017 116.521 92.9797C116.117 93.1515 115.726 93.2162 115.346 93.1738L115.251 92.8709C115.329 92.8471 115.385 92.788 115.417 92.6935C115.489 92.4855 115.406 92.3295 115.167 92.2254L114.947 92.1616C114.844 92.2547 114.763 92.3894 114.702 92.5659C114.643 92.7361 114.636 92.9213 114.679 93.1216C114.723 93.3218 114.826 93.4904 114.99 93.6272L115.242 93.4763L115.955 93.2439C116.212 93.4576 116.374 93.6991 116.443 93.9685C116.52 94.2342 116.519 94.4837 116.438 94.7169C116.36 94.9438 116.201 95.1499 115.961 95.3353C116.016 95.6856 116.002 95.9805 115.92 96.22C115.807 96.5477 115.554 96.7709 115.162 96.8896C114.771 97.0019 114.411 96.986 114.082 96.8419L114.009 96.4727C114.074 96.4868 114.125 96.4403 114.162 96.3331C114.201 96.2197 114.165 96.0805 114.053 95.9156C113.943 95.7444 113.804 95.6075 113.636 95.5049L112.913 95.7657L112.293 95.364C112.386 95.093 112.475 94.8962 112.559 94.7735L110.82 93.5786L110.216 93.7715L108.943 93.2149ZM114.019 91.3972C113.996 91.3218 113.941 91.2254 113.855 91.1081L113.94 90.8623C114.091 90.8121 114.199 90.7541 114.263 90.6882C114.229 90.6443 114.195 90.5712 114.16 90.4689L111.271 89.8266L111.457 89.2877L110.705 88.9594L109.29 93.0623L110.042 93.3906L110.228 92.8518L112.742 94.5812C112.823 94.5296 112.894 94.4956 112.956 94.4791C112.94 94.3848 112.894 94.2632 112.818 94.1143L112.903 93.8685C113.037 93.8688 113.131 93.8486 113.188 93.8079C113.038 93.467 113.061 93.0129 113.257 92.4457C113.455 91.8722 113.709 91.5227 114.019 91.3972ZM116.262 91.5287C116.565 91.3421 116.76 91.1228 116.847 90.8707C116.936 90.6123 116.836 90.3727 116.547 90.152C116.56 90.1942 116.557 90.2436 116.538 90.3004C116.455 90.5398 116.271 90.6953 115.987 90.7667C115.698 90.8291 115.45 90.815 115.242 90.7242C114.808 90.5347 114.627 90.256 114.698 89.888L114.465 89.8297C114.423 89.9494 114.398 90.0435 114.388 90.1119C114.375 90.1712 114.388 90.2566 114.427 90.3679C114.459 90.4765 114.533 90.5885 114.648 90.704C114.574 90.8383 114.413 90.9568 114.167 91.0594C114.231 91.1383 114.28 91.2212 114.313 91.3082C114.343 91.3863 114.356 91.4685 114.355 91.5548C113.977 91.6725 113.693 92.0055 113.504 92.5538C113.315 93.1021 113.327 93.5569 113.54 93.9182C113.465 94.0525 113.319 94.13 113.101 94.1508C113.208 94.3715 113.257 94.5744 113.25 94.7596C113.096 94.7576 112.973 94.7874 112.881 94.8489C112.786 94.9015 112.724 94.958 112.696 95.0183C112.663 95.076 112.626 95.1616 112.587 95.275L112.794 95.4089C112.879 95.2431 112.997 95.146 113.147 95.1174C113.294 95.0799 113.474 95.1078 113.688 95.2013C113.902 95.2947 114.095 95.4772 114.269 95.7488C114.438 96.0114 114.483 96.2593 114.402 96.4925L114.32 96.6089C114.666 96.6657 114.881 96.5713 114.966 96.3255C115.053 96.0734 115.042 95.7601 114.932 95.3858L114.951 95.329C115.233 95.2055 115.411 95.0366 115.484 94.8223C115.582 94.5387 115.508 94.2235 115.262 93.8767C115.269 93.9378 115.262 93.9999 115.24 94.0629C115.118 94.4159 114.88 94.5149 114.526 94.3601C114.172 94.2053 113.935 93.9641 113.816 93.6365C113.691 93.3063 113.683 92.9836 113.791 92.6685C113.9 92.3533 114.1 92.1214 114.39 91.9727C114.674 91.8213 114.993 91.823 115.348 91.9778C115.702 92.1326 115.818 92.3865 115.697 92.7394L115.598 92.903C115.985 92.8401 116.23 92.6606 116.332 92.3644C116.408 92.1438 116.378 91.8841 116.242 91.5854L116.262 91.5287ZM112.743 93.2004L110.629 91.689L110.87 90.9894L113.343 91.461L112.743 93.2004ZM111.816 91.4571L112.821 92.1793L112.994 91.6783L111.816 91.4571Z" fill="#EE4817"/>
</g>
<path d="M111.246 33.8842L110.888 33.2598L108.942 34.3773L108.99 34.4605L108.664 35.3394L107.905 35.7756C107.749 35.505 107.599 35.356 107.454 35.3285C107.313 35.308 107.135 35.3595 106.92 35.483L106.764 35.5726C106.792 35.6212 106.844 35.6469 106.919 35.6497L106.899 36.0486L106.573 36.9275C106.223 37.0731 105.909 37.0966 105.631 36.9979C105.353 36.8993 105.135 36.7112 104.975 36.4337C104.82 36.1632 104.76 35.8423 104.796 35.4711C104.457 35.315 104.206 35.0948 104.043 34.8103C103.884 34.5328 103.867 34.1181 103.993 33.5661C104.119 33.0142 104.374 32.5998 104.76 32.3232L105.114 32.507C105.068 32.5706 105.074 32.6544 105.134 32.7585C105.305 33.0568 105.651 33.0566 106.172 32.7578L106.1 32.6329L106.425 31.754L107.185 31.3178C107.348 31.6023 107.454 31.8094 107.501 31.9393L109.478 30.8039L109.43 30.7207L109.755 29.8418L111.223 28.9993L113.039 32.1628L112.714 33.0416L111.246 33.8842ZM107.523 32.7013C107.604 32.7468 107.735 32.7823 107.916 32.8077L108.071 33.0782C107.998 33.2401 107.963 33.3712 107.965 33.4714C108.102 33.485 108.23 33.5314 108.349 33.6105L111.326 31.9015L111.696 32.5467L112.581 32.0387L111.099 29.458L110.214 29.9659L110.573 30.5903L107.597 32.2993C107.604 32.4243 107.579 32.5583 107.523 32.7013ZM105.493 34.4203C105.422 34.7935 105.472 35.1293 105.643 35.4276C105.818 35.7329 106.119 35.8553 106.546 35.7949C106.49 35.7622 106.444 35.7147 106.408 35.6523C106.13 35.1666 106.347 34.7186 107.062 34.3083C107.645 33.9737 108.068 34.0353 108.33 34.4932L108.591 34.3438C108.515 34.212 108.45 34.1154 108.397 34.054C108.35 33.9886 108.258 33.9257 108.122 33.8655C107.986 33.8053 107.818 33.7773 107.618 33.7817C107.557 33.5953 107.588 33.3695 107.713 33.1043C107.442 33.0662 107.231 32.9798 107.08 32.8452C107.181 32.6673 107.239 32.5045 107.256 32.3566C107.272 32.2087 107.264 32.0981 107.231 32.0247C107.205 31.9474 107.156 31.8463 107.085 31.7214L106.825 31.8708C107.088 32.3287 106.928 32.7249 106.345 33.0596C105.818 33.3623 105.424 33.4406 105.165 33.2942C105.05 33.2221 104.946 33.1062 104.855 32.9466L104.801 32.7562C104.534 33.0941 104.486 33.4123 104.657 33.7106C104.832 34.0158 105.099 34.2316 105.458 34.3578L105.493 34.4203Z" fill="#EE4817"/>
<path d="M103.635 21.4334L107.787 25.5969L107.701 26.5302L106.52 27.708L106.079 27.2662L104.779 29.1905C104.835 29.2359 104.917 29.3124 105.024 29.42L104.938 30.3532L104.428 31.0653C104.123 30.7594 103.835 30.742 103.563 31.0132C103.398 31.177 103.336 31.2788 103.376 31.3184C103.472 31.4147 103.554 31.4403 103.622 31.3951L103.731 31.828L103.645 32.7613C103.373 33.0324 103.104 33.165 102.838 33.159C102.578 33.1586 102.344 33.0537 102.135 32.8441C101.931 32.6401 101.768 32.3344 101.644 31.927C101.293 31.8586 101.019 31.7253 100.821 31.527C100.51 31.2155 100.356 30.7825 100.356 30.2282C100.363 29.6794 100.476 29.1988 100.698 28.7861L101.062 28.8291C101.051 28.9309 101.088 29.0242 101.172 29.1092C101.359 29.2961 101.562 29.2795 101.783 29.0591L101.953 28.8388C101.903 28.6746 101.798 28.5133 101.64 28.3547C101.488 28.2017 101.295 28.0996 101.064 28.0484C100.832 27.9972 100.605 28.0308 100.385 28.1493L100.427 28.5142L100.34 29.4475C99.9951 29.6337 99.664 29.6983 99.3473 29.6413C99.0306 29.5956 98.7677 29.468 98.5587 29.2584C98.3554 29.0544 98.2115 28.7686 98.1272 28.4008C97.7313 28.2871 97.4261 28.1226 97.2114 27.9073C96.9177 27.6128 96.7994 27.211 96.8567 26.702C96.9196 26.1986 97.104 25.7944 97.4099 25.4893L97.834 25.5917C97.7887 25.6595 97.814 25.7416 97.9101 25.8379C98.0117 25.9399 98.1758 25.9684 98.4021 25.9234C98.6341 25.8841 98.8435 25.7939 99.0304 25.6528L99.0911 24.694L99.8046 24.1859C100.047 24.4294 100.214 24.6305 100.304 24.789L102.377 23.4003L102.454 22.6112L103.635 21.4334ZM103.193 28.1616C103.284 28.1731 103.411 28.1591 103.575 28.1197L103.795 28.3407C103.778 28.5386 103.789 28.6914 103.829 28.7989C103.891 28.782 103.984 28.7793 104.109 28.7908L106.132 25.8068L106.615 26.2911L107.312 25.5963L103.635 21.9086L102.938 22.6034L103.421 23.0877L100.423 25.0946C100.44 25.2135 100.442 25.3125 100.431 25.3916C100.538 25.4201 100.688 25.4288 100.88 25.4177L101.101 25.6386C101.038 25.7913 101.016 25.91 101.032 25.9949C101.462 25.9955 101.932 26.2507 102.44 26.7605C102.954 27.276 103.205 27.743 103.193 28.1616ZM102.01 30.6632C102.066 31.1045 102.207 31.4384 102.433 31.665C102.665 31.8973 102.965 31.9033 103.333 31.6832C103.282 31.6775 103.231 31.6491 103.18 31.5982C102.965 31.3829 102.887 31.0943 102.944 30.7323C103.012 30.3704 103.142 30.0934 103.335 29.9013C103.737 29.5002 104.116 29.4329 104.472 29.6992L104.642 29.4619C104.535 29.3543 104.447 29.2778 104.38 29.2324C104.323 29.1871 104.227 29.1587 104.091 29.1472C103.961 29.13 103.808 29.1581 103.633 29.2314C103.526 29.0785 103.475 28.8352 103.481 28.5014C103.368 28.5352 103.258 28.5492 103.15 28.5434C103.054 28.5376 102.961 28.512 102.87 28.4667C102.922 27.9746 102.702 27.4821 102.211 26.9893C101.719 26.4965 101.233 26.2809 100.752 26.3424C100.645 26.1896 100.631 25.9831 100.71 25.723C100.428 25.7339 100.19 25.6883 99.9978 25.5862C100.072 25.4109 100.097 25.2554 100.075 25.1196C100.064 24.9838 100.033 24.8848 99.9819 24.8225C99.9367 24.7546 99.8633 24.6696 99.7616 24.5676L99.5238 24.737C99.6593 24.9182 99.7071 25.1021 99.6673 25.2888C99.6387 25.4754 99.5253 25.6676 99.3271 25.8653C99.1288 26.063 98.8458 26.1927 98.478 26.2545C98.1215 26.3162 97.8388 26.2423 97.6298 26.0327L97.5451 25.8798C97.324 26.2472 97.3236 26.5414 97.5439 26.7623C97.7699 26.9889 98.1063 27.1336 98.5531 27.1964L98.6039 27.2474C98.6034 27.6321 98.6992 27.9207 98.8912 28.1133C99.1454 28.3682 99.513 28.4423 99.994 28.3354C99.9262 28.3127 99.864 28.273 99.8075 28.2164C99.4912 27.8992 99.4973 27.5767 99.8258 27.2491C100.154 26.9214 100.519 26.772 100.921 26.8009C101.328 26.8241 101.673 26.9773 101.956 27.2605C102.238 27.5437 102.39 27.889 102.412 28.2963C102.44 28.698 102.29 29.0627 101.961 29.3903C101.633 29.718 101.31 29.7232 100.994 29.406L100.867 29.2106C100.753 29.6856 100.829 30.0563 101.094 30.3225C101.292 30.5208 101.58 30.6173 101.959 30.6122L102.01 30.6632ZM101.881 25.7924L104.463 24.1329L105.09 24.7616L103.44 27.3559L101.881 25.7924ZM104.156 25.6089L102.924 26.3963L103.373 26.8467L104.156 25.6089Z" fill="#EE4817"/>
<path d="M28.824 26.4865L30.2445 28.2237L30.3091 28.1527L31.1688 28.2664L31.7233 28.9445C31.5133 29.1752 31.4114 29.3695 31.4177 29.5272C31.4293 29.6789 31.5137 29.8508 31.6707 30.0428L31.7846 30.1822C31.8223 30.1407 31.8343 30.0805 31.8208 30.0013L32.1837 29.9201L33.0433 30.0337C33.249 30.3603 33.3372 30.6807 33.308 30.995C33.2788 31.3093 33.1564 31.5848 32.941 31.8214C32.731 32.0522 32.4553 32.1963 32.114 32.2539C32.0461 32.646 31.9017 32.9633 31.681 33.2058C31.4656 33.4425 31.0963 33.566 30.5732 33.5764C30.0501 33.5867 29.623 33.427 29.2919 33.0971L29.3814 32.6814C29.4485 32.7135 29.5224 32.6851 29.6032 32.5964C29.8347 32.342 29.7606 31.9825 29.3808 31.5181L29.2839 31.6246L28.4242 31.5109L27.8697 30.8328C28.0905 30.5902 28.2543 30.4279 28.361 30.3459L26.9177 28.5809L26.6835 28.8382L27.4659 29.7951L26.5289 30.8245L25.6692 30.7108L23.8158 28.4442L28.4684 23.3325L29.3281 23.4462L31.1815 25.7129L30.293 26.689L29.4334 26.5754L29.1067 26.1759L28.824 26.4865ZM29.0412 30.1276C29.0647 30.0313 29.0685 29.886 29.0528 29.6917L29.2628 29.461C29.4239 29.4955 29.5493 29.4989 29.639 29.4709C29.6219 29.3251 29.6362 29.18 29.6819 29.0358L27.5093 26.379L28.6402 25.1366L29.4226 26.0934L29.883 25.5876L28.4549 23.8411L24.2546 28.4558L25.6827 30.2022L26.1674 29.6698L25.385 28.7129L26.4916 27.4972L28.6641 30.154C28.7749 30.1145 28.9006 30.1057 29.0412 30.1276ZM31.0203 31.7978C31.3711 31.7768 31.6623 31.6391 31.8939 31.3847C32.1308 31.1244 32.1766 30.7803 32.031 30.3523C32.0136 30.4185 31.9807 30.4782 31.9322 30.5314C31.5552 30.9456 31.106 30.8337 30.5844 30.1958C30.159 29.6756 30.124 29.2202 30.4794 28.8298L30.2895 28.5975C30.1872 28.7099 30.1142 28.8019 30.0704 28.8734C30.0216 28.9388 29.9847 29.0499 29.9596 29.2068C29.9346 29.3636 29.9454 29.5457 29.9922 29.7529C29.8377 29.864 29.6279 29.8887 29.3629 29.8272C29.3865 30.1186 29.354 30.3601 29.2653 30.5516C29.0838 30.4923 28.9249 30.4729 28.7884 30.4936C28.6519 30.5142 28.5542 30.551 28.4953 30.6039C28.4313 30.6507 28.3509 30.7274 28.254 30.8338L28.4439 31.0661C28.7993 30.6756 29.1897 30.7405 29.6151 31.2607C29.9999 31.7314 30.1543 32.1202 30.0782 32.4272C30.038 32.5655 29.9559 32.7027 29.832 32.8387L29.6724 32.9436C30.0333 33.1349 30.3296 33.1034 30.5611 32.849C30.798 32.5887 30.935 32.256 30.9718 31.8511L31.0203 31.7978Z" fill="#EE4817"/>
<path d="M23.5782 33.3169L23.1999 33.9295L25.153 35.0344L25.2035 34.9527L26.1454 34.7967L26.9079 35.228C26.744 35.4934 26.6855 35.6946 26.7326 35.8314C26.7838 35.9614 26.9174 36.0875 27.1332 36.2096L27.2899 36.2982C27.3193 36.2506 27.3167 36.194 27.282 36.1284L27.6465 35.9489L28.5885 35.7929C28.8905 36.0188 29.0662 36.2744 29.1157 36.5595C29.1651 36.8446 29.1057 37.1233 28.9376 37.3956C28.7737 37.6611 28.5178 37.8699 28.1701 38.0223C28.1984 38.3873 28.1264 38.7093 27.954 38.9884C27.7859 39.2607 27.4254 39.4792 26.8726 39.6441C26.3198 39.809 25.8254 39.7957 25.3894 39.6041L25.3779 39.2119C25.4574 39.2201 25.5286 39.1732 25.5917 39.0711C25.7724 38.7784 25.6017 38.4843 25.0794 38.1889L25.0038 38.3114L24.0619 38.4675L23.2994 38.0362C23.4717 37.7571 23.6041 37.5656 23.6964 37.4617L21.7119 36.3391L21.6615 36.4208L20.7195 36.5768L19.2468 35.7437L21.1635 32.6399L22.1055 32.4838L23.5782 33.3169ZM24.3628 37.0672C24.3631 36.9755 24.33 36.8465 24.2635 36.6803L24.4274 36.4149C24.6074 36.3973 24.7414 36.3629 24.8294 36.3116C24.7739 36.1884 24.752 36.0566 24.7635 35.9162L21.7763 34.2264L22.1673 33.5934L21.2794 33.0912L19.7158 35.6233L20.6036 36.1255L20.9819 35.5129L23.9691 37.2026C24.0767 37.1349 24.2079 37.0898 24.3628 37.0672ZM26.892 37.9468C27.2592 37.8238 27.5331 37.616 27.7139 37.3233C27.8988 37.0238 27.8592 36.7075 27.5951 36.3744C27.5936 36.4378 27.5739 36.5002 27.536 36.5614C27.2418 37.0379 26.7361 37.0733 26.0189 36.6676C25.434 36.3367 25.2802 35.9467 25.5577 35.4974L25.2965 35.3497C25.2167 35.4791 25.1627 35.5817 25.1346 35.6576C25.0995 35.7296 25.0887 35.8384 25.1023 35.9838C25.1158 36.1292 25.174 36.2861 25.2767 36.4544C25.141 36.5981 24.9246 36.6823 24.6274 36.7071C24.7272 36.9564 24.7545 37.1785 24.7093 37.3734C24.5015 37.3752 24.3277 37.4055 24.1881 37.4643C24.0484 37.523 23.9541 37.5845 23.9051 37.6486C23.8492 37.7088 23.7834 37.8002 23.7077 37.9227L23.9688 38.0704C24.2462 37.6212 24.6774 37.562 25.2623 37.8928C25.7915 38.1922 26.055 38.4882 26.0528 38.7808C26.0454 38.9144 25.9934 39.0595 25.8968 39.2161L25.7541 39.3558C26.1863 39.4166 26.4928 39.3007 26.6735 39.008C26.8585 38.7085 26.9187 38.3752 26.8542 38.008L26.892 37.9468Z" fill="#EE4817"/>
<path d="M26.5723 107.443C26.3795 107.259 26.2209 107.181 26.0966 107.21C25.9722 107.239 25.8232 107.35 25.6494 107.543C24.9007 108.376 23.8756 108.171 22.5741 106.928C22.2222 106.592 21.9843 106.323 21.8605 106.122C21.7367 105.92 21.6517 105.701 21.6055 105.463C21.2534 105.486 20.9688 105.394 20.7519 105.187C20.4675 104.915 20.3282 104.552 20.3341 104.097C20.3448 103.646 20.4534 103.266 20.6599 102.957L20.9755 103.009C20.9688 103.076 21.004 103.147 21.0811 103.221C21.1582 103.294 21.2476 103.324 21.3493 103.311C21.4555 103.293 21.5423 103.256 21.6099 103.201C21.6819 103.14 21.7669 103.056 21.865 102.947L21.7782 102.864L21.8177 102.072L22.3057 101.529C22.5178 101.732 22.6605 101.882 22.7339 101.98L24.004 100.566L23.9244 100.491L23.9639 99.6989L24.9064 98.6501L27.524 101.151C28.0832 101.685 28.3909 102.265 28.4473 102.89C28.5129 103.515 28.2806 104.122 27.7503 104.712C27.4517 105.044 27.0996 105.252 26.694 105.334C26.6939 105.454 26.6873 105.586 26.6742 105.73C26.7603 105.794 26.9021 105.92 27.0998 106.109L27.0602 106.9L26.5723 107.443ZM22.9094 102.562C22.9703 102.574 23.0792 102.567 23.2361 102.542L23.4242 102.722C23.4066 102.871 23.4086 102.984 23.43 103.059C23.5733 103.04 23.7015 103.051 23.8146 103.095L24.1622 102.708L25.0227 103.53C25.3698 103.862 25.4918 104.2 25.3888 104.543C25.4922 104.698 25.5383 104.871 25.527 105.063C25.6109 105.069 25.7198 105.062 25.8537 105.043L26.049 105.229C26.0218 105.369 26.0237 105.482 26.0549 105.567C26.1332 105.549 26.2191 105.549 26.3126 105.564C26.443 105.21 26.4433 104.791 26.3134 104.307C26.8107 104.312 27.2331 104.121 27.5806 103.734C28.2713 102.966 28.166 102.151 27.2645 101.29L24.9217 99.0518L24.3536 99.684L24.8091 100.119L22.8773 102.269C22.9033 102.34 22.914 102.437 22.9094 102.562ZM24.8227 105.413C24.3637 105.923 23.8522 105.909 23.2882 105.371C22.729 104.836 22.6789 104.314 23.1379 103.803C23.2181 103.714 23.3343 103.654 23.4864 103.625C23.6478 103.595 23.8081 103.655 23.9672 103.807L24.1276 103.629C24.0408 103.546 23.9689 103.487 23.9118 103.45C23.8591 103.409 23.7721 103.382 23.6508 103.367C23.5339 103.347 23.3974 103.36 23.2411 103.404C23.1477 103.269 23.115 103.081 23.143 102.84C22.9307 102.877 22.7489 102.86 22.5976 102.789C22.6285 102.625 22.6301 102.484 22.6023 102.365C22.579 102.242 22.5455 102.154 22.5018 102.103C22.4625 102.047 22.3994 101.978 22.3127 101.895L22.1522 102.074C22.4608 102.368 22.4301 102.722 22.0602 103.133C21.9176 103.292 21.7943 103.409 21.6904 103.485C21.5913 103.565 21.4675 103.608 21.3191 103.614C21.1754 103.624 21.0313 103.56 20.8867 103.422L20.7772 103.29C20.6611 103.658 20.7212 103.955 20.9574 104.181C21.0683 104.287 21.1892 104.351 21.3202 104.375C21.456 104.404 21.6304 104.409 21.8434 104.391L21.9012 104.446C21.9244 104.69 21.9933 104.912 22.1078 105.114C22.2272 105.32 22.4604 105.589 22.8074 105.92C23.974 107.035 24.8693 107.245 25.4931 106.551C25.9075 106.09 26.269 106.006 26.5775 106.301L26.738 106.123C26.6512 106.04 26.5792 105.98 26.5221 105.944C26.4743 105.908 26.3897 105.882 26.2684 105.868C26.1515 105.848 26.0149 105.86 25.8587 105.905C25.7701 105.774 25.7398 105.588 25.7678 105.348C25.5555 105.385 25.3665 105.361 25.2007 105.276C25.2316 105.112 25.2332 104.971 25.2054 104.852C25.187 104.733 25.1559 104.648 25.1121 104.597C25.0776 104.546 25.0146 104.476 24.923 104.389L24.7626 104.567C24.9217 104.719 24.9926 104.875 24.9754 105.033C24.9583 105.192 24.9073 105.318 24.8227 105.413ZM25.0666 102.853L24.5098 102.321L25.713 100.983L26.2697 101.515C26.5927 101.823 26.7673 102.077 26.7935 102.278C26.8245 102.482 26.7287 102.709 26.5058 102.957C26.0959 103.413 25.6161 103.378 25.0666 102.853ZM24.6147 104.343L24.4556 104.191L24.4499 104.407L23.9619 104.95C23.6686 104.688 23.4395 104.649 23.2746 104.832L23.2412 104.869C23.3005 104.963 23.3832 105.06 23.4892 105.162C23.8411 105.498 24.1554 105.577 24.4319 105.399L24.3813 105.35L24.4208 104.559L24.6147 104.343ZM25.6954 102.169L25.2543 102.659C25.5483 102.94 25.7826 103.053 25.957 102.999C26.081 102.961 26.1942 102.885 26.2967 102.771C26.3008 102.756 26.2185 102.668 26.0497 102.507L25.6954 102.169Z" fill="#EE4817"/>
<path d="M14.3281 97.6437C13.8548 96.8085 13.6641 96.0057 13.7561 95.2352C13.8424 94.4682 14.1799 93.908 14.7686 93.5545L14.8629 93.4979L14.8136 93.4108L15.0815 92.6669L15.7073 92.2911C15.8519 92.5463 15.9436 92.7284 15.9823 92.8373L17.8855 91.6944C18.1827 91.516 18.4782 91.4358 18.7718 91.4538C19.0744 91.4742 19.3507 91.5765 19.6006 91.7607C20.0603 92.0988 20.461 92.5694 20.8029 93.1726C21.2827 94.0195 21.479 94.8189 21.3919 95.5708C21.3138 96.3252 20.9661 96.8877 20.3488 97.2583L18.9857 98.0769L19.0399 98.1726L18.772 98.9165L18.1462 99.2923C18.0213 99.0719 17.9008 98.9538 17.7846 98.938C17.6684 98.9223 17.5246 98.9659 17.3532 99.0689L17.2417 99.1358C16.9445 99.3142 16.6475 99.3916 16.3505 99.3677C16.0569 99.3497 15.7835 99.2457 15.5303 99.0557C15.0673 98.7118 14.6666 98.2412 14.3281 97.6437ZM15.9815 93.4442C16.0609 93.4897 16.1706 93.5211 16.3105 93.5381L16.4337 93.7556C16.3736 93.8928 16.3444 94.0036 16.3463 94.088C16.5255 94.1203 16.67 94.1929 16.7799 94.3057L18.4688 93.2915C18.7603 93.1165 19.037 93.0708 19.2989 93.1546C19.5665 93.2348 19.7809 93.4171 19.9419 93.7013C20.1029 93.9855 20.1527 94.2627 20.0913 94.5328C20.0299 94.8029 19.8506 95.0272 19.5534 95.2056L17.8645 96.2198C17.9058 96.3738 17.896 96.539 17.8351 96.7155C17.9023 96.7529 18.0103 96.7813 18.1592 96.8008L18.2824 97.0183C18.2223 97.1554 18.1948 97.2691 18.1999 97.3593C18.3071 97.3727 18.4021 97.4051 18.4848 97.4565L20.4566 96.2724C20.6966 96.1283 20.8691 95.9392 20.974 95.7052C21.0788 95.4712 21.1191 95.2177 21.0946 94.9448C21.0702 94.6718 21.0118 94.3998 20.9195 94.1287C20.8272 93.8577 20.7054 93.5887 20.5542 93.3219C20.403 93.0551 20.2356 92.8136 20.0518 92.5975C19.8713 92.3871 19.6701 92.2009 19.448 92.0389C19.2293 91.8826 18.9951 91.7939 18.7457 91.7726C18.4962 91.7514 18.2514 91.8129 18.0114 91.957L16.0396 93.1411C16.0341 93.2532 16.0148 93.3542 15.9815 93.4442ZM14.3927 95.6692C14.4926 96.0212 14.6461 96.38 14.8531 96.7454C15.0602 97.1108 15.288 97.4249 15.5365 97.6877C15.7849 97.9505 16.0733 98.1349 16.4015 98.241C16.7387 98.3495 17.0617 98.311 17.3703 98.1257L17.456 98.0742C17.9304 97.7894 18.2744 97.8355 18.488 98.2125L18.6938 98.0889C18.6346 97.9845 18.5829 97.9067 18.5386 97.8556C18.5033 97.8068 18.4279 97.7549 18.3125 97.6999C18.206 97.6472 18.0714 97.6192 17.9087 97.6159C17.8649 97.4711 17.8898 97.2851 17.9832 97.058C17.7755 97.0428 17.6027 96.9678 17.465 96.8328C17.5456 96.6911 17.5898 96.5596 17.5976 96.4383C17.6112 96.3136 17.6044 96.2205 17.5773 96.159C17.5558 96.0942 17.5155 96.0095 17.4564 95.9051L17.2506 96.0287C17.3591 96.2201 17.382 96.389 17.3194 96.5354C17.2569 96.6818 17.1713 96.7876 17.0627 96.8528C16.754 97.0382 16.4536 97.0825 16.1614 96.9859C15.8749 96.8859 15.6446 96.6821 15.4704 96.3747C15.2962 96.0673 15.2373 95.7606 15.2938 95.4547C15.3559 95.1453 15.5413 94.8979 15.8499 94.7126C15.9585 94.6473 16.0901 94.6227 16.2447 94.6387C16.3993 94.6547 16.5309 94.7584 16.6393 94.9498L16.8451 94.8263C16.7859 94.7219 16.7342 94.6441 16.6899 94.593C16.6513 94.5384 16.5759 94.4865 16.4638 94.4372C16.3573 94.3846 16.2243 94.3595 16.0649 94.3619C16.008 94.194 16.0296 94.0022 16.1296 93.7867C15.9153 93.7599 15.7458 93.6906 15.6212 93.5789C15.6985 93.4314 15.7394 93.2941 15.744 93.167C15.7576 93.0422 15.7508 92.9491 15.7236 92.8877C15.7055 92.8286 15.6668 92.7469 15.6077 92.6425L15.4019 92.7661C15.6155 93.1431 15.4852 93.474 15.0108 93.7589L14.9251 93.8103C14.6164 93.9957 14.4233 94.2632 14.3457 94.613C14.2772 94.9651 14.2928 95.3172 14.3927 95.6692ZM18.3353 94.2929L17.1779 94.9879L16.9332 95.6712L16.3073 96.0471C16.2458 95.9519 16.1928 95.8787 16.1485 95.8276C16.1099 95.773 16.0452 95.7264 15.9543 95.6877C15.8667 95.6547 15.7744 95.6675 15.6772 95.7258C15.5572 95.7979 15.5629 95.9499 15.6944 96.1819C15.8258 96.4139 15.9767 96.5721 16.147 96.6564C16.3264 96.743 16.5063 96.7632 16.687 96.717L16.6524 96.6561L16.9203 95.9122L17.5462 95.5364C17.6513 95.722 17.7241 95.8571 17.7644 95.9417L19.4018 94.9585C19.4475 94.931 19.4666 94.8768 19.459 94.7958C19.4572 94.7114 19.4415 94.6431 19.4119 94.5909C19.2903 94.3763 19.1333 94.2413 18.941 94.1857C18.7544 94.1268 18.5525 94.1625 18.3353 94.2929Z" fill="#EE4817"/>
<path d="M12.1036 86.8254L12.0655 86.7117C11.9828 86.4652 11.8858 86.3227 11.7745 86.2844C11.6654 86.2523 11.5134 86.2708 11.3186 86.3398L11.1772 86.3899C11.2087 86.4212 11.2445 86.4439 11.2844 86.458L10.7972 87.458C10.4891 87.5247 10.23 87.4962 10.0198 87.3727C9.80963 87.2491 9.66427 87.0673 9.58371 86.8271C9.50316 86.5869 9.50532 86.3103 9.59019 85.9974C9.33573 85.8047 9.16822 85.5882 9.08767 85.348C8.97319 85.0067 9.0285 84.6371 9.2536 84.2391C9.47241 83.8434 9.74406 83.5633 10.0686 83.3989L10.3273 83.6042C10.2813 83.6559 10.2763 83.7354 10.3124 83.8429C10.3484 83.9503 10.4168 84.018 10.5176 84.046C10.6268 84.078 10.7233 84.0827 10.8071 84.0601C10.893 84.0438 11.0051 84.0112 11.1434 83.9622L11.1084 83.8579L11.5149 83.1835L12.203 82.9398C12.29 83.1989 12.342 83.3855 12.3592 83.4997L14.1502 82.8653L14.0611 82.5998L14.4677 81.9254L15.7968 81.4546L16.9383 84.8583C17.2287 85.7242 17.2084 86.4916 16.8773 87.1605C16.5462 87.8293 15.9973 88.2995 15.2307 88.5711C14.464 88.8427 13.8148 88.804 13.2829 88.4549C13.0324 88.777 12.6903 89.0149 12.2567 89.1685L12.1248 89.2152C12.1584 89.2528 12.1952 89.2787 12.2351 89.2928L12.1513 89.6089L11.7447 90.2833C11.4199 90.363 11.1545 90.3262 10.9484 90.1729C10.736 90.0219 10.5578 89.7314 10.4136 89.3016C10.2695 88.8718 10.3245 88.4174 10.5787 87.9384C10.8287 87.468 11.2396 87.1315 11.8114 86.929L12.1036 86.8254ZM13.218 87.0035C13.2874 87.0638 13.3893 87.1161 13.5237 87.1604C13.5449 87.2236 13.5566 87.269 13.5588 87.2965C14.0388 87.8053 14.7155 87.905 15.589 87.5956C15.8969 87.4865 16.1428 87.3393 16.3267 87.1539C16.519 86.9727 16.6505 86.7882 16.7212 86.6005C16.8002 86.417 16.8381 86.1737 16.835 85.8707C16.8339 85.5741 16.773 85.2457 16.6521 84.8854L15.6219 81.8135L14.8207 82.0974L15.075 82.8558L12.3792 83.8108C12.3607 83.9234 12.3191 84.0301 12.2545 84.1308C12.3134 84.1806 12.4142 84.2298 12.557 84.2782L12.6397 84.5247C12.5541 84.6469 12.5052 84.7526 12.493 84.8419C12.7218 84.9164 12.8892 85.0798 12.9949 85.3323C13.033 85.4249 13.0966 85.6039 13.1856 85.8694C13.2746 86.1348 13.3257 86.3501 13.3389 86.5152C13.3584 86.678 13.3181 86.8408 13.218 87.0035ZM12.8544 85.6366C12.8163 85.5229 12.7803 85.4366 12.7466 85.3779C12.7212 85.3232 12.6581 85.2607 12.5571 85.1904C12.4562 85.1201 12.3239 85.0715 12.1602 85.0446C12.1386 84.8754 12.1999 84.6911 12.3439 84.4916C12.1297 84.419 11.9709 84.3125 11.8677 84.1723C11.9805 84.0475 12.0556 83.9255 12.0929 83.8062C12.1302 83.6869 12.1414 83.5945 12.1265 83.5291C12.12 83.4677 12.0987 83.3833 12.0627 83.2759L11.827 83.3594C11.9627 83.7639 11.7666 84.0596 11.2387 84.2466C11.0439 84.3156 10.8795 84.3598 10.7453 84.379C10.6195 84.4023 10.4863 84.3823 10.3455 84.3191C10.2111 84.2535 10.112 84.126 10.0485 83.9364L10.0385 83.7808C9.76666 84.0185 9.67633 84.2733 9.76748 84.545C9.85864 84.8168 10.0387 85.0288 10.3077 85.181L10.3268 85.2379C10.2062 85.5282 10.1904 85.806 10.2794 86.0715C10.3706 86.3433 10.5966 86.493 10.9574 86.5208C10.9217 86.4981 10.8858 86.433 10.8498 86.3256C10.8137 86.2181 10.8049 86.1081 10.8234 85.9955C10.8503 85.8869 10.9076 85.7959 10.9955 85.7224C11.1439 85.5991 11.3533 85.4895 11.6235 85.3938C12.1514 85.2068 12.4831 85.3156 12.6188 85.7201L12.7841 86.2131C12.9219 86.624 12.7269 86.9229 12.199 87.1099L11.954 87.1967C11.181 87.4705 10.9048 87.9361 11.1253 88.5934C11.2376 88.9284 11.3726 89.1422 11.5302 89.2349C11.6732 89.3257 11.7981 89.3628 11.905 89.3461C11.8671 89.3171 11.8387 89.2741 11.8196 89.2173C11.7327 88.9581 11.7634 88.7563 11.9118 88.6118C12.0602 88.4673 12.2947 88.3383 12.6151 88.2248C13.0802 88.06 13.3098 87.7701 13.3042 87.3548C13.0942 87.2949 12.9376 87.1948 12.8343 87.0546C12.945 86.9234 13.019 86.7982 13.0564 86.6789C13.0937 86.5596 13.1049 86.4672 13.09 86.4018C13.0813 86.3341 13.058 86.2434 13.0198 86.1297L12.8544 85.6366ZM15.4821 84.0694L15.6824 84.6667C15.9855 85.5706 15.7883 86.146 15.0908 86.3931C14.72 86.5245 14.3782 86.5218 14.0652 86.3852C13.7543 86.2549 13.5215 85.959 13.3667 85.4976L13.1632 84.8908L15.4821 84.0694ZM15.0118 85.4028L14.91 85.0994L13.6846 85.5335C13.9469 86.1478 14.3859 86.3458 15.0018 86.1277L15.14 86.0681C15.1563 85.928 15.1135 85.7062 15.0118 85.4028Z" fill="#EE4817"/>
<path d="M30.8082 113.672C30.0146 113.132 29.4881 112.496 29.2287 111.763C28.9658 111.036 29.0192 110.383 29.389 109.804L29.4483 109.712L29.3656 109.656L29.2754 108.869L29.6685 108.254C29.911 108.419 30.0737 108.541 30.1566 108.622L31.3522 106.751C31.5389 106.459 31.7675 106.256 32.0382 106.142C32.3179 106.026 32.6104 105.996 32.9156 106.05C33.4767 106.15 34.0438 106.395 34.617 106.785C35.4217 107.332 35.9518 107.963 36.2073 108.677C36.4718 109.389 36.4103 110.048 36.0225 110.655L35.1662 111.995L35.2572 112.057L35.3474 112.844L34.9543 113.459C34.7449 113.316 34.5847 113.264 34.4738 113.301C34.3629 113.338 34.2536 113.441 34.1459 113.61L34.0759 113.719C33.8892 114.011 33.6578 114.213 33.3816 114.323C33.111 114.437 32.8203 114.465 32.5096 114.407C31.943 114.303 31.3759 114.058 30.8082 113.672ZM30.425 109.167C30.5162 109.173 30.6282 109.153 30.7609 109.106L30.9676 109.246C30.9746 109.396 30.9977 109.509 31.0368 109.584C31.2114 109.533 31.3728 109.534 31.5211 109.587L32.582 107.927C32.7651 107.64 32.9924 107.477 33.2638 107.436C33.5387 107.389 33.8113 107.458 34.0813 107.641C34.3514 107.825 34.5188 108.052 34.5837 108.322C34.6485 108.592 34.5875 108.873 34.4008 109.165L33.3399 110.825C33.4452 110.945 33.5097 111.097 33.5335 111.283C33.6101 111.287 33.7194 111.264 33.8611 111.216L34.0678 111.356C34.0749 111.506 34.1007 111.62 34.1453 111.699C34.2471 111.664 34.3463 111.65 34.4431 111.66L35.6818 109.722C35.8325 109.486 35.903 109.24 35.893 108.983C35.8831 108.726 35.8066 108.481 35.6637 108.247C35.5208 108.012 35.348 107.794 35.1453 107.592C34.9425 107.389 34.7143 107.202 34.4608 107.029C34.2073 106.857 33.9504 106.714 33.6902 106.601C33.4355 106.493 33.1729 106.415 32.9025 106.368C32.6375 106.324 32.3887 106.349 32.1562 106.44C31.9236 106.532 31.732 106.696 31.5812 106.931L30.3425 108.869C30.3874 108.973 30.4149 109.072 30.425 109.167ZM29.9905 111.87C30.236 112.142 30.5323 112.396 30.8795 112.632C31.2268 112.869 31.5698 113.05 31.9086 113.175C32.2473 113.301 32.587 113.339 32.9276 113.289C33.2774 113.236 33.5491 113.059 33.743 112.755L33.7969 112.671C34.0949 112.205 34.423 112.094 34.7812 112.337L34.9105 112.135C34.8113 112.068 34.7305 112.021 34.6682 111.994C34.615 111.966 34.5246 111.953 34.3969 111.955C34.2783 111.955 34.1455 111.989 33.9985 112.059C33.8952 111.948 33.835 111.77 33.8178 111.525C33.6253 111.603 33.4375 111.612 33.2544 111.552C33.2637 111.389 33.2449 111.252 33.1982 111.139C33.155 111.021 33.1076 110.941 33.0561 110.897C33.0082 110.849 32.9346 110.791 32.8354 110.723L32.7061 110.925C32.888 111.049 32.9834 111.191 32.9924 111.35C33.0013 111.509 32.9717 111.642 32.9035 111.749C32.7096 112.052 32.4606 112.225 32.1564 112.268C31.8558 112.305 31.5594 112.225 31.2673 112.026C30.9752 111.827 30.7865 111.578 30.7013 111.278C30.6197 110.972 30.6758 110.668 30.8697 110.365C30.9379 110.258 31.0447 110.178 31.1901 110.123C31.3355 110.069 31.4991 110.104 31.681 110.228L31.8102 110.025C31.711 109.958 31.6303 109.911 31.568 109.885C31.5093 109.853 31.4188 109.84 31.2967 109.845C31.1781 109.845 31.048 109.882 30.9065 109.955C30.7812 109.829 30.7154 109.647 30.7093 109.409C30.5057 109.48 30.3235 109.493 30.1625 109.448C30.1662 109.281 30.1419 109.14 30.0897 109.024C30.0465 108.906 29.9991 108.825 29.9476 108.782C29.9052 108.737 29.8344 108.681 29.7351 108.613L29.6059 108.816C29.9641 109.059 29.9943 109.414 29.6963 109.881L29.6424 109.965C29.4486 110.268 29.3945 110.594 29.4802 110.943C29.575 111.289 29.7451 111.598 29.9905 111.87ZM32.9066 108.885L32.1796 110.023L32.2637 110.745L31.8706 111.36C31.7733 111.302 31.6935 111.26 31.6312 111.234C31.5725 111.202 31.4939 111.189 31.3955 111.194C31.3025 111.203 31.2256 111.256 31.1645 111.351C31.0891 111.469 31.1617 111.603 31.3821 111.753C31.6026 111.903 31.8077 111.978 31.9974 111.978C32.1962 111.977 32.3661 111.915 32.5072 111.793L32.4493 111.754L32.3591 110.967L32.7522 110.352C32.9286 110.472 33.0535 110.561 33.1271 110.619L34.1557 109.01C34.1844 108.965 34.1775 108.908 34.1348 108.838C34.0957 108.764 34.0513 108.709 34.0017 108.675C33.7978 108.537 33.5975 108.485 33.4009 108.52C33.2078 108.55 33.0431 108.672 32.9066 108.885Z" fill="#EE4817"/>
<path d="M42.6983 114.888L41.776 116.515L41.8447 116.556L41.9778 117.334L41.6178 117.969C41.3947 117.836 41.2258 117.789 41.1111 117.829C41.0022 117.873 40.8967 117.985 40.7948 118.164L40.7208 118.295C40.7609 118.319 40.8083 118.316 40.8632 118.287L41.0147 118.587L41.1479 119.366C40.959 119.618 40.745 119.766 40.506 119.809C40.2669 119.852 40.0329 119.806 39.8041 119.669C39.581 119.535 39.4051 119.325 39.2765 119.038C38.9703 119.065 38.7 119.008 38.4654 118.868C38.2366 118.731 38.0524 118.434 37.9127 117.978C37.773 117.521 37.783 117.112 37.9427 116.749L38.2717 116.736C38.265 116.802 38.3046 116.861 38.3904 116.912C38.6364 117.059 38.8827 116.915 39.1293 116.48L39.0263 116.419L38.8932 115.64L39.2532 115.005C39.4877 115.145 39.6487 115.253 39.7361 115.329L40.6732 113.676L40.4243 113.527L39.9163 114.423L38.9209 113.828L38.7878 113.049L39.9912 110.926L44.9339 113.884L45.067 114.663L43.8636 116.785L42.9197 116.22L42.7866 115.442L42.9986 115.068L42.6983 114.888ZM40.0687 115.877C40.1456 115.877 40.2537 115.848 40.393 115.792L40.6161 115.925C40.6313 116.074 40.6605 116.185 40.7037 116.257C40.8069 116.21 40.9175 116.191 41.0353 116.2L42.4458 113.712L43.6472 114.43L43.1392 115.326L43.6283 115.619L44.5555 113.984L40.0933 111.314L39.1661 112.949L39.681 113.257L40.189 112.361L41.3646 113.065L39.9541 115.553C40.0112 115.641 40.0494 115.749 40.0687 115.877ZM39.3368 117.979C39.4408 118.282 39.6158 118.507 39.8618 118.655C40.1135 118.805 40.3788 118.77 40.6576 118.548C40.6044 118.548 40.552 118.532 40.5006 118.501C40.1001 118.261 40.0692 117.843 40.4079 117.245C40.6841 116.758 41.0109 116.628 41.3885 116.854L41.5118 116.636C41.4031 116.571 41.3169 116.527 41.2531 116.505C41.1926 116.476 41.1013 116.468 40.9794 116.481C40.8574 116.493 40.7259 116.543 40.5849 116.629C40.4641 116.518 40.3929 116.339 40.3714 116.094C40.1625 116.178 39.9762 116.203 39.8126 116.167C39.8106 115.995 39.7848 115.851 39.7351 115.736C39.6855 115.621 39.6337 115.543 39.5798 115.503C39.5291 115.458 39.4523 115.404 39.3494 115.342L39.2261 115.56C39.6036 115.786 39.6543 116.142 39.3781 116.629C39.1283 117.07 38.8805 117.291 38.635 117.291C38.5229 117.286 38.401 117.245 38.2695 117.166L38.1519 117.049C38.1019 117.407 38.1999 117.66 38.4459 117.807C38.6976 117.958 38.9774 118.005 39.2853 117.948L39.3368 117.979Z" fill="#EE4817"/>
<path d="M52.2151 121.354L52.1699 121.772C52.073 122.391 51.7862 122.823 51.3094 123.067C50.8381 123.319 50.3132 123.397 49.7346 123.3C49.5571 123.27 49.3832 123.217 49.2129 123.141C49.0426 123.065 48.9155 122.993 48.8317 122.925C48.7469 122.864 48.6449 122.782 48.5258 122.681C48.4122 122.588 48.3493 122.537 48.3372 122.528L48.1221 122.35C47.9624 122.465 47.7588 122.559 47.5111 122.633C47.2701 122.707 47.0608 122.729 46.8833 122.7L46.4829 122.024L46.3487 121.718C46.4773 121.672 46.5591 121.537 46.5942 121.313L46.8724 119.534L48.0164 119.726L48.4168 120.402L48.3689 120.708L48.3635 121.001C48.4882 121.11 48.6951 121.189 48.9844 121.237C49.2803 121.287 49.4827 121.179 49.5918 120.913C49.4773 120.955 49.3972 120.992 49.3516 121.025L48.5743 119.719L48.775 119.6C48.5135 119.374 48.3066 119.187 48.1542 119.04C48.0094 118.887 47.8389 118.683 47.6428 118.427C47.2527 117.902 47.1029 117.349 47.1936 116.77C47.2853 116.183 47.5751 115.776 48.063 115.547C48.5585 115.312 49.0988 115.244 49.684 115.342C49.9996 115.395 50.2746 115.492 50.509 115.633C50.7444 115.767 50.9004 115.891 50.977 116.005L51.0934 116.167L51.1645 115.712L52.3874 115.917L52.7878 116.593L52.4416 118.806L51.2877 118.612L50.8873 117.937L50.8203 117.459C50.7178 117.381 50.591 117.33 50.4398 117.304C50.2885 117.279 50.1521 117.31 50.0304 117.398C49.9153 117.487 49.8433 117.623 49.8145 117.808L49.8104 117.898C49.8271 117.921 49.9934 118.044 50.3096 118.266C50.6333 118.482 50.9354 118.729 51.216 119.006C51.4976 119.276 51.6608 119.527 51.7057 119.757C51.8064 119.761 51.9849 119.784 52.2414 119.827L52.6417 120.502L52.5289 121.224C52.3382 121.192 52.2336 121.235 52.2151 121.354ZM47.5018 116.74C47.4513 117.063 47.4882 117.367 47.6124 117.651C47.7441 117.93 47.8984 118.152 48.075 118.317C48.2527 118.475 48.4826 118.666 48.7648 118.889C49.047 119.112 49.2434 119.28 49.3539 119.393C49.4774 119.38 49.5983 119.383 49.7167 119.403C49.9731 119.446 50.2042 119.587 50.41 119.824L50.6184 119.656L50.8649 119.697C50.9329 119.824 50.9966 119.912 51.0562 119.963C51.1506 119.877 51.261 119.818 51.3876 119.785C51.2877 119.518 51.0987 119.26 50.8206 119.011C50.5435 118.755 50.2724 118.547 50.0072 118.387C49.7485 118.229 49.5224 118.036 49.3287 117.807C49.1427 117.573 49.0692 117.331 49.1084 117.081C49.1341 116.916 49.194 116.771 49.288 116.645C49.4825 116.393 49.7539 116.297 50.1024 116.355C50.681 116.452 51.0327 116.9 51.1574 117.698L51.8576 117.816L52.1173 116.156L51.3678 116.03L51.2596 116.722L51.2004 116.712C50.8565 116.107 50.3394 115.746 49.649 115.63C49.1296 115.543 48.6587 115.599 48.2361 115.799C47.8146 115.992 47.5698 116.306 47.5018 116.74ZM51.4804 121.068L51.5287 120.63C51.572 120.353 51.7021 120.233 51.9191 120.27L51.9577 120.023C51.8328 120.002 51.7364 119.992 51.6686 119.994C51.6084 119.991 51.5233 120.017 51.4134 120.073C51.3034 120.129 51.1944 120.222 51.0862 120.353C50.9326 120.3 50.8054 120.164 50.7049 119.944C50.5562 120.075 50.4098 120.148 50.2655 120.165C50.1247 119.857 49.8965 119.677 49.5809 119.624C49.3771 119.59 49.1622 119.648 48.9361 119.8L49.0546 120.012C49.195 119.934 49.331 119.906 49.4624 119.928C49.5939 119.951 49.7028 120.009 49.7891 120.105C49.8819 120.202 49.9299 120.304 49.9332 120.413C49.943 120.523 49.9376 120.644 49.917 120.775C49.8974 120.9 49.8586 121.019 49.8006 121.131C49.7492 121.244 49.6452 121.348 49.4886 121.444C49.333 121.532 49.1434 121.558 48.9199 121.521C48.5451 121.458 48.2405 121.292 48.0059 121.022C47.7714 120.753 47.6679 120.401 47.6954 119.967L47.1136 119.869L46.8956 121.262C46.8534 121.532 46.7948 121.691 46.7197 121.739C46.8477 121.741 47.0273 121.693 47.2583 121.597C47.4958 121.501 47.6486 121.409 47.7167 121.319C47.7995 121.393 47.9181 121.498 48.0725 121.632C48.5415 122.042 48.9699 122.279 49.3578 122.344C49.8838 122.433 50.3487 122.372 50.7525 122.163C51.1574 121.947 51.4001 121.582 51.4804 121.068Z" fill="#EE4817"/>
<path d="M65.5603 86.7931C76.6679 86.7931 85.6724 77.7886 85.6724 66.681C85.6724 55.5735 76.6679 46.569 65.5603 46.569C54.4527 46.569 45.4482 55.5735 45.4482 66.681C45.4482 77.7886 54.4527 86.7931 65.5603 86.7931Z" fill="#FEE7E7" stroke="#EE4817"/>
<path d="M60.1046 54.3093L66.4917 65.3076L53.915 65.3764L60.1046 54.3093Z" fill="#EE4817"/>
<path d="M54.3105 65.1376L60.1089 54.77L66.0924 65.0731L54.3105 65.1376Z" stroke="#FAF4F4" stroke-opacity="0.5"/>
<path d="M65.512 81.9477L53.793 66.7452L77.1407 66.7029L65.512 81.9477Z" fill="url(#paint0_radial_282_51)"/>
<path d="M76.6707 66.9404L65.511 81.5704L54.2646 66.9811L76.6707 66.9404Z" stroke="#FAF4F4" stroke-opacity="0.5"/>
<path d="M70.0115 54.2698L76.0695 65.3473H64.0112L70.0115 54.2698Z" fill="#4AD5F4"/>
<path d="M70.2066 54.1523L70.0102 53.7932L69.8157 54.1523L63.8155 65.2298L63.6235 65.5842H64.0118H76.0701H76.4584L76.2646 65.2298L70.2066 54.1523Z" stroke="#FAF4F4" stroke-opacity="0.5"/>
<path d="M71.4737 56.1443L71.2787 55.7974L71.0856 56.1443L66.0878 65.1203L65.8892 65.4771H66.2828H76.3251H76.7188L76.5182 65.1203L71.4737 56.1443Z" fill="#D05EBC" stroke="#FAF4F4" stroke-opacity="0.5"/>
<g filter="url(#filter8_i_282_51)">
<path d="M127.031 65.1686C127.957 65.4656 127.957 66.776 127.031 67.073L116.176 70.5548C115.531 70.7618 114.871 70.2804 114.871 69.6026V62.639C114.871 61.9612 115.531 61.4798 116.176 61.6868L127.031 65.1686Z" fill="#FF501D" fill-opacity="0.76"/>
</g>
<g filter="url(#filter9_i_282_51)">
<path d="M65.1683 2.96872C65.4654 2.04262 66.7757 2.04262 67.0728 2.96872L70.5546 13.8239C70.7616 14.4693 70.2801 15.1293 69.6023 15.1293H62.6387C61.961 15.1293 61.4795 14.4693 61.6865 13.8239L65.1683 2.96872Z" fill="#FF501D" fill-opacity="0.76"/>
</g>
<g filter="url(#filter10_i_282_51)">
<path d="M2.96872 68.1935C2.04262 67.8964 2.04262 66.5861 2.96872 66.2891L13.8239 62.8073C14.4693 62.6003 15.1293 63.0817 15.1293 63.7595V70.7231C15.1293 71.4009 14.4693 71.8823 13.8239 71.6753L2.96872 68.1935Z" fill="#FF501D" fill-opacity="0.76"/>
</g>
<g filter="url(#filter11_i_282_51)">
<path d="M67.0729 125.911C66.7758 126.837 65.4655 126.837 65.1685 125.911L61.6867 115.056C61.4796 114.41 61.9611 113.75 62.6389 113.75H69.6025C70.2803 113.75 70.7617 114.41 70.5547 115.056L67.0729 125.911Z" fill="#FF501D" fill-opacity="0.76"/>
</g>
<defs>
<filter id="filter0_i_282_51" x="67.2412" y="67.2412" width="44.8276" height="48.8276" filterUnits="userSpaceOnUse" color-interpolation-filters="sRGB">
<feFlood flood-opacity="0" result="BackgroundImageFix"/>
<feBlend mode="normal" in="SourceGraphic" in2="BackgroundImageFix" result="shape"/>
<feColorMatrix in="SourceAlpha" type="matrix" values="0 0 0 0 0 0 0 0 0 0 0 0 0 0 0 0 0 0 127 0" result="hardAlpha"/>
<feOffset dy="4"/>
<feGaussianBlur stdDeviation="2"/>
<feComposite in2="hardAlpha" operator="arithmetic" k2="-1" k3="1"/>
<feColorMatrix type="matrix" values="0 0 0 0 0 0 0 0 0 0 0 0 0 0 0 0 0 0 0.25 0"/>
<feBlend mode="normal" in2="shape" result="effect1_innerShadow_282_51"/>
</filter>
<filter id="filter1_i_282_51" x="67.2412" y="20.1725" width="44.8276" height="48.8275" filterUnits="userSpaceOnUse" color-interpolation-filters="sRGB">
<feFlood flood-opacity="0" result="BackgroundImageFix"/>
<feBlend mode="normal" in="SourceGraphic" in2="BackgroundImageFix" result="shape"/>
<feColorMatrix in="SourceAlpha" type="matrix" values="0 0 0 0 0 0 0 0 0 0 0 0 0 0 0 0 0 0 127 0" result="hardAlpha"/>
<feOffset dy="4"/>
<feGaussianBlur stdDeviation="2"/>
<feComposite in2="hardAlpha" operator="arithmetic" k2="-1" k3="1"/>
<feColorMatrix type="matrix" values="0 0 0 0 0 0 0 0 0 0 0 0 0 0 0 0 0 0 0.25 0"/>
<feBlend mode="normal" in2="shape" result="effect1_innerShadow_282_51"/>
</filter>
<filter id="filter2_i_282_51" x="20.1724" y="67.2412" width="44.8276" height="48.8276" filterUnits="userSpaceOnUse" color-interpolation-filters="sRGB">
<feFlood flood-opacity="0" result="BackgroundImageFix"/>
<feBlend mode="normal" in="SourceGraphic" in2="BackgroundImageFix" result="shape"/>
<feColorMatrix in="SourceAlpha" type="matrix" values="0 0 0 0 0 0 0 0 0 0 0 0 0 0 0 0 0 0 127 0" result="hardAlpha"/>
<feOffset dy="4"/>
<feGaussianBlur stdDeviation="2"/>
<feComposite in2="hardAlpha" operator="arithmetic" k2="-1" k3="1"/>
<feColorMatrix type="matrix" values="0 0 0 0 0 0 0 0 0 0 0 0 0 0 0 0 0 0 0.25 0"/>
<feBlend mode="normal" in2="shape" result="effect1_innerShadow_282_51"/>
</filter>
<filter id="filter3_i_282_51" x="20.1724" y="20.1725" width="44.8276" height="48.8275" filterUnits="userSpaceOnUse" color-interpolation-filters="sRGB">
<feFlood flood-opacity="0" result="BackgroundImageFix"/>
<feBlend mode="normal" in="SourceGraphic" in2="BackgroundImageFix" result="shape"/>
<feColorMatrix in="SourceAlpha" type="matrix" values="0 0 0 0 0 0 0 0 0 0 0 0 0 0 0 0 0 0 127 0" result="hardAlpha"/>
<feOffset dy="4"/>
<feGaussianBlur stdDeviation="2"/>
<feComposite in2="hardAlpha" operator="arithmetic" k2="-1" k3="1"/>
<feColorMatrix type="matrix" values="0 0 0 0 0 0 0 0 0 0 0 0 0 0 0 0 0 0 0.25 0"/>
<feBlend mode="normal" in2="shape" result="effect1_innerShadow_282_51"/>
</filter>
<filter id="filter4_i_282_51" x="67.2412" y="23.3787" width="41.2031" height="45.6213" filterUnits="userSpaceOnUse" color-interpolation-filters="sRGB">
<feFlood flood-opacity="0" result="BackgroundImageFix"/>
<feBlend mode="normal" in="SourceGraphic" in2="BackgroundImageFix" result="shape"/>
<feColorMatrix in="SourceAlpha" type="matrix" values="0 0 0 0 0 0 0 0 0 0 0 0 0 0 0 0 0 0 127 0" result="hardAlpha"/>
<feOffset dy="4"/>
<feGaussianBlur stdDeviation="2"/>
<feComposite in2="hardAlpha" operator="arithmetic" k2="-1" k3="1"/>
<feColorMatrix type="matrix" values="0 0 0 0 0 0 0 0 0 0 0 0 0 0 0 0 0 0 0.25 0"/>
<feBlend mode="normal" in2="shape" result="effect1_innerShadow_282_51"/>
</filter>
<filter id="filter5_i_282_51" x="25.1846" y="26.7306" width="39.8154" height="42.2694" filterUnits="userSpaceOnUse" color-interpolation-filters="sRGB">
<feFlood flood-opacity="0" result="BackgroundImageFix"/>
<feBlend mode="normal" in="SourceGraphic" in2="BackgroundImageFix" result="shape"/>
<feColorMatrix in="SourceAlpha" type="matrix" values="0 0 0 0 0 0 0 0 0 0 0 0 0 0 0 0 0 0 127 0" result="hardAlpha"/>
<feOffset dy="4"/>
<feGaussianBlur stdDeviation="2"/>
<feComposite in2="hardAlpha" operator="arithmetic" k2="-1" k3="1"/>
<feColorMatrix type="matrix" values="0 0 0 0 0 0 0 0 0 0 0 0 0 0 0 0 0 0 0.25 0"/>
<feBlend mode="normal" in2="shape" result="effect1_innerShadow_282_51"/>
</filter>
<filter id="filter6_i_282_51" x="30.3247" y="67.2412" width="34.6753" height="45.6213" filterUnits="userSpaceOnUse" color-interpolation-filters="sRGB">
<feFlood flood-opacity="0" result="BackgroundImageFix"/>
<feBlend mode="normal" in="SourceGraphic" in2="BackgroundImageFix" result="shape"/>
<feColorMatrix in="SourceAlpha" type="matrix" values="0 0 0 0 0 0 0 0 0 0 0 0 0 0 0 0 0 0 127 0" result="hardAlpha"/>
<feOffset dy="4"/>
<feGaussianBlur stdDeviation="2"/>
<feComposite in2="hardAlpha" operator="arithmetic" k2="-1" k3="1"/>
<feColorMatrix type="matrix" values="0 0 0 0 0 0 0 0 0 0 0 0 0 0 0 0 0 0 0.25 0"/>
<feBlend mode="normal" in2="shape" result="effect1_innerShadow_282_51"/>
</filter>
<filter id="filter7_i_282_51" x="81.1851" y="86.8904" width="39.7622" height="39.8982" filterUnits="userSpaceOnUse" color-interpolation-filters="sRGB">
<feFlood flood-opacity="0" result="BackgroundImageFix"/>
<feBlend mode="normal" in="SourceGraphic" in2="BackgroundImageFix" result="shape"/>
<feColorMatrix in="SourceAlpha" type="matrix" values="0 0 0 0 0 0 0 0 0 0 0 0 0 0 0 0 0 0 127 0" result="hardAlpha"/>
<feOffset dy="4"/>
<feGaussianBlur stdDeviation="2"/>
<feComposite in2="hardAlpha" operator="arithmetic" k2="-1" k3="1"/>
<feColorMatrix type="matrix" values="0 0 0 0 0.933333 0 0 0 0 0.282353 0 0 0 0 0.0901961 0 0 0 0.74 0"/>
<feBlend mode="normal" in2="shape" result="effect1_innerShadow_282_51"/>
</filter>
<filter id="filter8_i_282_51" x="114.871" y="61.6382" width="12.8555" height="12.9651" filterUnits="userSpaceOnUse" color-interpolation-filters="sRGB">
<feFlood flood-opacity="0" result="BackgroundImageFix"/>
<feBlend mode="normal" in="SourceGraphic" in2="BackgroundImageFix" result="shape"/>
<feColorMatrix in="SourceAlpha" type="matrix" values="0 0 0 0 0 0 0 0 0 0 0 0 0 0 0 0 0 0 127 0" result="hardAlpha"/>
<feOffset dy="4"/>
<feGaussianBlur stdDeviation="2"/>
<feComposite in2="hardAlpha" operator="arithmetic" k2="-1" k3="1"/>
<feColorMatrix type="matrix" values="0 0 0 0 0.933333 0 0 0 0 0.282353 0 0 0 0 0.0901961 0 0 0 0.72 0"/>
<feBlend mode="normal" in2="shape" result="effect1_innerShadow_282_51"/>
</filter>
<filter id="filter9_i_282_51" x="61.6382" y="2.27417" width="8.96484" height="16.8551" filterUnits="userSpaceOnUse" color-interpolation-filters="sRGB">
<feFlood flood-opacity="0" result="BackgroundImageFix"/>
<feBlend mode="normal" in="SourceGraphic" in2="BackgroundImageFix" result="shape"/>
<feColorMatrix in="SourceAlpha" type="matrix" values="0 0 0 0 0 0 0 0 0 0 0 0 0 0 0 0 0 0 127 0" result="hardAlpha"/>
<feOffset dy="4"/>
<feGaussianBlur stdDeviation="2"/>
<feComposite in2="hardAlpha" operator="arithmetic" k2="-1" k3="1"/>
<feColorMatrix type="matrix" values="0 0 0 0 0.933333 0 0 0 0 0.282353 0 0 0 0 0.0901961 0 0 0 0.72 0"/>
<feBlend mode="normal" in2="shape" result="effect1_innerShadow_282_51"/>
</filter>
<filter id="filter10_i_282_51" x="2.27393" y="62.7588" width="12.8555" height="12.9651" filterUnits="userSpaceOnUse" color-interpolation-filters="sRGB">
<feFlood flood-opacity="0" result="BackgroundImageFix"/>
<feBlend mode="normal" in="SourceGraphic" in2="BackgroundImageFix" result="shape"/>
<feColorMatrix in="SourceAlpha" type="matrix" values="0 0 0 0 0 0 0 0 0 0 0 0 0 0 0 0 0 0 127 0" result="hardAlpha"/>
<feOffset dy="4"/>
<feGaussianBlur stdDeviation="2"/>
<feComposite in2="hardAlpha" operator="arithmetic" k2="-1" k3="1"/>
<feColorMatrix type="matrix" values="0 0 0 0 0.933333 0 0 0 0 0.282353 0 0 0 0 0.0901961 0 0 0 0.72 0"/>
<feBlend mode="normal" in2="shape" result="effect1_innerShadow_282_51"/>
</filter>
<filter id="filter11_i_282_51" x="61.6382" y="113.75" width="8.96484" height="16.8552" filterUnits="userSpaceOnUse" color-interpolation-filters="sRGB">
<feFlood flood-opacity="0" result="BackgroundImageFix"/>
<feBlend mode="normal" in="SourceGraphic" in2="BackgroundImageFix" result="shape"/>
<feColorMatrix in="SourceAlpha" type="matrix" values="0 0 0 0 0 0 0 0 0 0 0 0 0 0 0 0 0 0 127 0" result="hardAlpha"/>
<feOffset dy="4"/>
<feGaussianBlur stdDeviation="2"/>
<feComposite in2="hardAlpha" operator="arithmetic" k2="-1" k3="1"/>
<feColorMatrix type="matrix" values="0 0 0 0 0.933333 0 0 0 0 0.282353 0 0 0 0 0.0901961 0 0 0 0.68 0"/>
<feBlend mode="normal" in2="shape" result="effect1_innerShadow_282_51"/>
</filter>
<radialGradient id="paint0_radial_282_51" cx="0" cy="0" r="1" gradientUnits="userSpaceOnUse" gradientTransform="translate(67.2095 81.9741) rotate(-99.7851) scale(15.962 21.1093)">
<stop stop-color="#CD095B"/>
<stop offset="0.519986" stop-color="#EA3581"/>
</radialGradient>
</defs>
</svg>
