<svg width="145" height="42" viewBox="0 0 145 42" fill="none" xmlns="http://www.w3.org/2000/svg">
<path d="M39.8641 3.11965C40.0368 1.55888 40.905 0.72159 42.4688 0.607788C43.1979 0.615441 43.8203 0.869383 44.3359 1.36961C44.8778 1.84408 45.1449 2.44587 45.1373 3.175L44.9421 21.7677C44.9084 22.4966 44.6286 23.1057 44.1026 23.595C43.5769 24.0582 42.9495 24.286 42.2203 24.2784L25.815 24.1062C23.5243 24.004 21.7982 23.452 20.6368 22.4502C19.4756 21.4223 18.6412 20.2807 18.1335 19.0253C17.6261 17.7438 17.3792 16.4521 17.3929 15.1501C17.4071 13.796 17.6682 12.4966 18.176 11.2518C18.7102 9.98134 19.5684 8.85747 20.7506 7.88024C21.9591 6.87725 23.4749 6.37229 25.298 6.36539L35.1412 6.4687C35.8704 6.47636 36.4796 6.74318 36.9689 7.26918C37.4845 7.76941 37.7385 8.38409 37.7308 9.11322C37.7232 9.84234 37.4562 10.4646 36.9299 10.9799C36.43 11.4695 35.8154 11.7104 35.0863 11.7028L25.0868 11.5978C24.5921 11.5926 24.1602 11.7965 23.7913 12.2093C23.4226 12.596 23.1443 13.0619 22.9563 13.6068C22.7946 14.126 22.711 14.646 22.7055 15.1668C22.6998 15.7136 22.7721 16.2613 22.9226 16.8098C23.0995 17.3325 23.368 17.8041 23.7282 18.2246C24.0886 18.619 24.5161 18.8318 25.0106 18.8631L38.6817 19.0066C39.359 18.9876 39.7011 18.6526 39.7079 18.0016L39.8641 3.11965ZM73.1581 4.17228C73.1504 4.9014 72.8836 5.51061 72.3576 5.99991C71.8574 6.51552 71.2427 6.7695 70.5135 6.76185L54.8894 6.59786C54.3944 6.6187 53.9765 6.73151 53.6358 6.93628C53.3214 7.11528 53.0847 7.33416 52.9257 7.59293C52.767 7.82565 52.6863 8.07221 52.6836 8.33261C52.6808 8.59301 52.7562 8.85424 52.9097 9.11628C53.0635 9.35228 53.2956 9.57608 53.6059 9.78768C53.9425 9.97352 54.358 10.0821 54.8525 10.1133L65.9456 10.2297C67.7679 10.3009 69.2607 10.7463 70.4241 11.5659C71.6137 12.3596 72.4504 13.2799 72.9343 14.3267C73.4444 15.3478 73.6939 16.3921 73.6827 17.4598C73.6718 18.5014 73.4004 19.5403 72.8687 20.5764C72.3372 21.5865 71.4813 22.489 70.3011 23.284C69.1211 24.0529 67.6196 24.4278 65.7968 24.4086L65.5625 24.4062C65.4059 24.4306 65.2496 24.442 65.0933 24.4403L50.3285 24.2853C49.5994 24.2777 48.977 24.0237 48.4614 23.5235C47.9721 22.9975 47.7313 22.3699 47.7389 21.6408C47.7466 20.9117 48.0134 20.3025 48.5394 19.8132C49.0396 19.2976 49.6543 19.0436 50.3834 19.0512L66.0857 19.2161C66.5802 19.2473 66.9848 19.1604 67.2995 18.9554C67.6402 18.7506 67.89 18.5188 68.049 18.2601C68.2082 17.9753 68.2894 17.6896 68.2924 17.4032C68.2943 17.2209 68.2187 16.9727 68.0658 16.6586C67.9131 16.3184 67.6686 16.0424 67.3323 15.8305C67.022 15.6189 66.6196 15.4975 66.1251 15.4663L55.0319 15.3498C53.2097 15.2786 51.7037 14.8461 50.514 14.0523C49.3504 13.2588 48.5134 12.3646 48.003 11.3696C47.5189 10.3488 47.2823 9.31764 47.2932 8.27603C47.3039 7.26046 47.5748 6.26065 48.106 5.27659C48.6375 4.26648 49.4932 3.37698 50.6732 2.60807C51.8532 1.83916 53.3549 1.43824 55.1783 1.40529L55.4127 1.40775C55.5692 1.38335 55.7256 1.37197 55.8818 1.37361L70.5685 1.52776C71.2976 1.53542 71.9068 1.80224 72.3961 2.32824C72.9117 2.82847 73.1657 3.44315 73.1581 4.17228ZM101.744 14.5901C102.228 15.6369 102.464 16.6941 102.453 17.7617C102.442 18.8034 102.171 19.8422 101.639 20.8784C101.108 21.8885 100.252 22.791 99.0714 23.5859C97.8913 24.3549 96.3899 24.7297 94.5671 24.7106L94.3327 24.7081C94.1762 24.7325 94.0199 24.7439 93.8636 24.7423L78.1614 24.5775C77.4585 24.5441 76.8622 24.2904 76.3724 23.8165C75.9088 23.3168 75.6677 22.7153 75.6491 22.0119L75.8369 4.12226C75.8703 3.41945 76.1238 2.83614 76.5975 2.37234C77.0974 1.88277 77.6991 1.62865 78.4024 1.60999L91.8392 1.75103C91.9954 1.75267 92.1515 1.76733 92.3075 1.79501L92.5419 1.79747C94.3641 1.86868 95.8571 2.30104 97.0207 3.09455C98.1843 3.88805 99.0212 4.79532 99.5313 5.81636C100.042 6.81135 100.292 7.81664 100.281 8.83221C100.27 9.87382 100.012 10.8868 99.5068 11.8711C99.4802 11.9229 99.4538 11.9617 99.4275 11.9875C100.487 12.7539 101.259 13.6214 101.744 14.5901ZM94.856 19.518C95.3505 19.5493 95.7551 19.4624 96.0697 19.2573C96.4104 19.0526 96.6603 18.8208 96.8193 18.562C96.9785 18.2772 97.0596 17.9916 97.0627 17.7052C97.0646 17.5229 96.989 17.2747 96.8361 16.9606C96.6834 16.6204 96.4389 16.3444 96.1025 16.1325C95.7922 15.9209 95.3898 15.7995 94.8954 15.7682L80.9899 15.6223L80.9616 18.3175C80.9542 19.0205 81.3151 19.3759 82.0442 19.3836L94.856 19.518ZM93.9384 10.172C94.2528 9.99296 94.4894 9.7871 94.6481 9.55437C94.807 9.29561 94.8879 9.03603 94.8906 8.77563C94.8934 8.51522 94.8178 8.26702 94.6641 8.03102C94.5105 7.76898 94.2655 7.54504 93.9289 7.35921C93.6186 7.1476 93.2162 7.02619 92.7217 6.99495L82.1754 6.88426C81.4463 6.8766 81.078 7.22432 81.0706 7.92741L81.0448 10.3882L92.6848 10.5104C93.1798 10.4895 93.5977 10.3767 93.9384 10.172ZM103.474 4.49048C103.481 3.76135 103.735 3.152 104.235 2.66243C104.761 2.14709 105.389 1.89325 106.118 1.9009L128.851 2.13951C129.58 2.14717 130.203 2.40111 130.718 2.90134C131.208 3.42734 131.448 4.0549 131.441 4.78403C131.433 5.51315 131.166 6.13538 130.64 6.65072C130.14 7.14029 129.525 7.38125 128.796 7.3736L120.086 7.28217L119.92 23.1016C119.747 24.6624 118.879 25.4997 117.315 25.6135C116.586 25.6058 115.95 25.3648 115.409 24.8903C114.893 24.3901 114.639 23.7754 114.647 23.0463L114.813 7.22682L106.063 7.13499C105.334 7.12733 104.725 6.86051 104.236 6.33451C103.72 5.83428 103.466 5.2196 103.474 4.49048Z" stroke="url(#paint0_radial_964_429)"/>
<path d="M1.19263 39L2.59263 32H5.19263C5.89263 32 6.48596 32.1167 6.97263 32.35C7.45929 32.5833 7.82596 32.9133 8.07263 33.34C8.32596 33.76 8.45263 34.2567 8.45263 34.83C8.45263 35.4367 8.34929 35.9967 8.14263 36.51C7.94263 37.0233 7.64929 37.4667 7.26263 37.84C6.88263 38.2067 6.42596 38.4933 5.89263 38.7C5.35929 38.9 4.75929 39 4.09263 39H1.19263ZM1.79263 38.54H4.12263C4.90263 38.54 5.57596 38.3833 6.14263 38.07C6.71596 37.75 7.15596 37.3133 7.46263 36.76C7.77596 36.2 7.93263 35.5633 7.93263 34.85C7.93263 34.37 7.82929 33.95 7.62263 33.59C7.41596 33.23 7.10596 32.9533 6.69263 32.76C6.27929 32.56 5.75929 32.46 5.13263 32.46H3.01263L1.79263 38.54Z" stroke="url(#paint1_radial_964_429)"/>
<path d="M9.25434 40.98C9.02101 40.98 8.79768 40.94 8.58435 40.86C8.37101 40.78 8.20101 40.6667 8.07435 40.52L8.36435 40.15C8.47768 40.2833 8.61435 40.38 8.77435 40.44C8.92768 40.5067 9.10435 40.54 9.30435 40.54C9.53768 40.54 9.75101 40.4767 9.94435 40.35C10.1443 40.2233 10.3577 39.9867 10.5843 39.64L11.1343 38.81L11.2143 38.72L14.4043 33.78H14.9243L11.0243 39.77C10.8243 40.0767 10.631 40.3167 10.4443 40.49C10.2643 40.67 10.0777 40.7967 9.88435 40.87C9.69768 40.9433 9.48768 40.98 9.25434 40.98ZM11.0643 39.13L9.70435 33.78H10.2143L11.4443 38.69L11.0643 39.13Z" stroke="url(#paint2_radial_964_429)"/>
<path d="M18.8575 33.74C19.3309 33.74 19.7142 33.8333 20.0075 34.02C20.3075 34.2 20.5109 34.46 20.6175 34.8C20.7309 35.1333 20.7409 35.5267 20.6475 35.98L20.0476 39H19.5475L20.1475 35.98C20.2609 35.4267 20.1976 34.99 19.9576 34.67C19.7242 34.35 19.3142 34.19 18.7275 34.19C18.1342 34.19 17.6375 34.3567 17.2375 34.69C16.8375 35.0167 16.5709 35.5067 16.4375 36.16L15.8675 39H15.3675L16.4075 33.78H16.8975L16.5975 35.29L16.4675 35.16C16.7142 34.6667 17.0442 34.3067 17.4576 34.08C17.8709 33.8533 18.3375 33.74 18.8575 33.74Z" stroke="url(#paint3_radial_964_429)"/>
<path d="M24.6661 39.04C24.2194 39.04 23.8261 38.9533 23.4861 38.78C23.1461 38.6067 22.8827 38.3567 22.6961 38.03C22.5094 37.7033 22.4161 37.3167 22.4161 36.87C22.4161 36.4167 22.4861 36 22.6261 35.62C22.7727 35.24 22.9794 34.91 23.2461 34.63C23.5127 34.35 23.8261 34.1333 24.1861 33.98C24.5461 33.82 24.9394 33.74 25.3661 33.74C25.8261 33.74 26.2161 33.8233 26.5361 33.99C26.8561 34.15 27.0994 34.3867 27.2661 34.7C27.4394 35.0067 27.5261 35.38 27.5261 35.82C27.5327 36.44 27.4161 36.9933 27.1761 37.48C26.9427 37.9667 26.6094 38.35 26.1761 38.63C25.7494 38.9033 25.2461 39.04 24.6661 39.04ZM24.7661 38.59C25.2394 38.59 25.6594 38.4767 26.0261 38.25C26.3927 38.0233 26.6827 37.71 26.8961 37.31C27.1094 36.9033 27.2161 36.4467 27.2161 35.94C27.2161 35.38 27.0527 34.95 26.7261 34.65C26.4061 34.3433 25.9527 34.19 25.3661 34.19C24.8994 34.19 24.4794 34.3067 24.1061 34.54C23.7394 34.7667 23.4494 35.08 23.2361 35.48C23.0227 35.88 22.9161 36.3333 22.9161 36.84C22.9161 37.3933 23.0761 37.8233 23.3961 38.13C23.7227 38.4367 24.1794 38.59 24.7661 38.59ZM26.6661 39L26.9861 37.37L27.2761 36.46L27.3461 35.5L27.6861 33.78H28.1861L27.1461 39H26.6661Z" stroke="url(#paint4_radial_964_429)"/>
<path d="M37.0741 33.74C37.5474 33.74 37.9274 33.8333 38.2141 34.02C38.5074 34.2 38.7074 34.46 38.8141 34.8C38.9208 35.1333 38.9274 35.5267 38.8341 35.98L38.2241 39H37.7241L38.3341 35.98C38.4408 35.4267 38.3808 34.99 38.1541 34.67C37.9341 34.35 37.5408 34.19 36.9741 34.19C36.4141 34.19 35.9408 34.3467 35.5541 34.66C35.1674 34.9667 34.9108 35.4267 34.7841 36.04L34.1841 39H33.6841L34.2941 35.98C34.4008 35.4267 34.3408 34.99 34.1141 34.67C33.8941 34.35 33.5008 34.19 32.9341 34.19C32.3608 34.19 31.8808 34.3567 31.4941 34.69C31.1074 35.0233 30.8474 35.5133 30.7141 36.16L30.1441 39H29.6441L30.6841 33.78H31.1741L30.8741 35.29L30.7441 35.16C30.9908 34.6667 31.3141 34.3067 31.7141 34.08C32.1141 33.8533 32.5641 33.74 33.0641 33.74C33.4374 33.74 33.7541 33.8033 34.0141 33.93C34.2808 34.0567 34.4841 34.2367 34.6241 34.47C34.7641 34.7033 34.8408 34.9833 34.8541 35.31L34.6041 35.25C34.8574 34.7433 35.1974 34.3667 35.6241 34.12C36.0508 33.8667 36.5341 33.74 37.0741 33.74Z" stroke="url(#paint5_radial_964_429)"/>
<path d="M40.6886 39L41.7286 33.78H42.2286L41.1886 39H40.6886ZM42.2886 32.51C42.182 32.51 42.092 32.4733 42.0186 32.4C41.9453 32.3267 41.9086 32.24 41.9086 32.14C41.9086 32.02 41.9486 31.9167 42.0286 31.83C42.1153 31.7433 42.222 31.7 42.3486 31.7C42.462 31.7 42.5553 31.7367 42.6286 31.81C42.702 31.8833 42.7386 31.97 42.7386 32.07C42.7386 32.1967 42.6953 32.3033 42.6086 32.39C42.522 32.47 42.4153 32.51 42.2886 32.51Z" stroke="url(#paint6_radial_964_429)"/>
<path d="M45.9661 39.04C45.4861 39.04 45.0694 38.9533 44.7161 38.78C44.3627 38.6 44.0894 38.3467 43.8961 38.02C43.7094 37.6933 43.6161 37.31 43.6161 36.87C43.6161 36.2633 43.7427 35.7267 43.9961 35.26C44.2561 34.7867 44.6127 34.4167 45.0661 34.15C45.5194 33.8767 46.0361 33.74 46.6161 33.74C47.0827 33.74 47.4827 33.8233 47.8161 33.99C48.1561 34.15 48.4161 34.3933 48.5961 34.72L48.1861 34.97C48.0261 34.7033 47.8127 34.5067 47.5461 34.38C47.2794 34.2533 46.9594 34.19 46.5861 34.19C46.1061 34.19 45.6794 34.3067 45.3061 34.54C44.9394 34.7667 44.6494 35.08 44.4361 35.48C44.2227 35.88 44.1161 36.3333 44.1161 36.84C44.1161 37.3933 44.2794 37.8233 44.6061 38.13C44.9327 38.4367 45.3994 38.59 46.0061 38.59C46.3527 38.59 46.6761 38.5267 46.9761 38.4C47.2827 38.2667 47.5361 38.0767 47.7361 37.83L48.0861 38.11C47.8594 38.4033 47.5561 38.6333 47.1761 38.8C46.8027 38.96 46.3994 39.04 45.9661 39.04Z" stroke="url(#paint7_radial_964_429)"/>
<path d="M54.7313 39.05C54.3913 39.05 54.058 39.01 53.7313 38.93C53.4113 38.8433 53.1213 38.73 52.8613 38.59C52.608 38.45 52.408 38.2933 52.2613 38.12L52.5313 37.73C52.678 37.8967 52.868 38.0467 53.1013 38.18C53.3413 38.3133 53.6046 38.4167 53.8913 38.49C54.1846 38.5633 54.478 38.6 54.7713 38.6C55.2046 38.6 55.588 38.54 55.9213 38.42C56.2613 38.3 56.5246 38.1267 56.7113 37.9C56.898 37.6667 56.9913 37.3833 56.9913 37.05C56.9913 36.8033 56.9213 36.6033 56.7813 36.45C56.648 36.2967 56.4713 36.17 56.2513 36.07C56.038 35.97 55.798 35.8867 55.5313 35.82C55.2713 35.7467 55.008 35.6667 54.7413 35.58C54.4813 35.4933 54.2413 35.39 54.0213 35.27C53.808 35.1433 53.6313 34.98 53.4913 34.78C53.358 34.58 53.2913 34.3267 53.2913 34.02C53.2913 33.58 53.408 33.2067 53.6413 32.9C53.8813 32.5933 54.2046 32.36 54.6113 32.2C55.018 32.0333 55.4813 31.95 56.0013 31.95C56.4013 31.95 56.788 32.0033 57.1613 32.11C57.5346 32.21 57.8513 32.36 58.1113 32.56L57.8713 32.98C57.6246 32.7933 57.338 32.65 57.0113 32.55C56.6846 32.45 56.3413 32.4 55.9813 32.4C55.5546 32.4 55.1746 32.4633 54.8413 32.59C54.5146 32.71 54.258 32.8867 54.0713 33.12C53.8913 33.3533 53.8013 33.6367 53.8013 33.97C53.8013 34.2167 53.868 34.42 54.0013 34.58C54.1346 34.7333 54.308 34.8633 54.5213 34.97C54.7413 35.07 54.9846 35.1567 55.2513 35.23C55.518 35.3033 55.7813 35.3833 56.0413 35.47C56.3013 35.55 56.5413 35.6533 56.7613 35.78C56.9813 35.9 57.158 36.0567 57.2913 36.25C57.4313 36.4433 57.5013 36.69 57.5013 36.99C57.5013 37.4367 57.378 37.8133 57.1313 38.12C56.8913 38.4267 56.5613 38.66 56.1413 38.82C55.728 38.9733 55.258 39.05 54.7313 39.05Z" stroke="url(#paint8_radial_964_429)"/>
<path d="M61.335 39.04C60.8684 39.04 60.4617 38.9533 60.115 38.78C59.7684 38.6 59.4984 38.3467 59.305 38.02C59.1184 37.6933 59.025 37.31 59.025 36.87C59.025 36.27 59.1517 35.7367 59.405 35.27C59.665 34.7967 60.0184 34.4233 60.465 34.15C60.9184 33.8767 61.435 33.74 62.015 33.74C62.4884 33.74 62.895 33.83 63.235 34.01C63.5817 34.1833 63.8484 34.4333 64.035 34.76C64.2284 35.08 64.325 35.4633 64.325 35.91C64.325 36.51 64.195 37.0467 63.935 37.52C63.6817 37.9867 63.3284 38.3567 62.875 38.63C62.4284 38.9033 61.915 39.04 61.335 39.04ZM61.375 38.59C61.8484 38.59 62.2684 38.4767 62.635 38.25C63.0017 38.0233 63.2917 37.71 63.505 37.31C63.7184 36.9033 63.825 36.4467 63.825 35.94C63.825 35.38 63.6617 34.95 63.335 34.65C63.015 34.3433 62.5617 34.19 61.975 34.19C61.5084 34.19 61.0884 34.3067 60.715 34.54C60.3484 34.7667 60.0584 35.08 59.845 35.48C59.6317 35.88 59.525 36.3333 59.525 36.84C59.525 37.3933 59.685 37.8233 60.005 38.13C60.3317 38.4367 60.7884 38.59 61.375 38.59Z" stroke="url(#paint9_radial_964_429)"/>
<path d="M67.8662 39.04C67.4062 39.04 67.0262 38.95 66.7262 38.77C66.4329 38.5833 66.2329 38.3233 66.1262 37.99C66.0196 37.65 66.0096 37.2533 66.0962 36.8L66.6962 33.78H67.1962L66.5962 36.8C66.4896 37.3533 66.5496 37.79 66.7762 38.11C67.0096 38.43 67.4162 38.59 67.9962 38.59C68.5896 38.59 69.0829 38.4267 69.4762 38.1C69.8762 37.7667 70.1396 37.2733 70.2662 36.62L70.8362 33.78H71.3362L70.2962 39H69.8062L70.1062 37.49L70.2362 37.62C69.9896 38.1133 69.6596 38.4733 69.2462 38.7C68.8396 38.9267 68.3796 39.04 67.8662 39.04Z" stroke="url(#paint10_radial_964_429)"/>
<path d="M72.7957 39L74.2757 31.58H74.7757L73.2957 39H72.7957Z" stroke="url(#paint11_radial_964_429)"/>
<path d="M75.8031 39L77.2831 31.58H77.7831L77.0231 35.42L76.7231 36.32L76.6431 37.23L76.2931 39H75.8031ZM78.6231 39.04C78.1698 39.04 77.7798 38.96 77.4531 38.8C77.1331 38.6333 76.8898 38.3967 76.7231 38.09C76.5564 37.7767 76.4698 37.4 76.4631 36.96C76.4631 36.4933 76.5298 36.0633 76.6631 35.67C76.7964 35.2767 76.9898 34.9367 77.2431 34.65C77.4964 34.3633 77.7964 34.14 78.1431 33.98C78.4964 33.82 78.8898 33.74 79.3231 33.74C79.7764 33.74 80.1698 33.8267 80.5031 34C80.8431 34.1733 81.1064 34.4233 81.2931 34.75C81.4864 35.0767 81.5831 35.4633 81.5831 35.91C81.5831 36.3633 81.5098 36.78 81.3631 37.16C81.2164 37.54 81.0098 37.87 80.7431 38.15C80.4831 38.43 80.1731 38.65 79.8131 38.81C79.4531 38.9633 79.0564 39.04 78.6231 39.04ZM78.6331 38.59C79.1064 38.59 79.5264 38.4767 79.8931 38.25C80.2598 38.0233 80.5464 37.71 80.7531 37.31C80.9664 36.9033 81.0731 36.4467 81.0731 35.94C81.0731 35.38 80.9098 34.95 80.5831 34.65C80.2631 34.3433 79.8098 34.19 79.2231 34.19C78.7564 34.19 78.3364 34.3033 77.9631 34.53C77.5964 34.7567 77.3064 35.07 77.0931 35.47C76.8798 35.87 76.7731 36.3267 76.7731 36.84C76.7731 37.3933 76.9364 37.8233 77.2631 38.13C77.5898 38.4367 78.0464 38.59 78.6331 38.59Z" stroke="url(#paint12_radial_964_429)"/>
<path d="M85.1811 39.04C84.7145 39.04 84.3078 38.9533 83.9611 38.78C83.6145 38.6 83.3445 38.3467 83.1511 38.02C82.9645 37.6933 82.8711 37.31 82.8711 36.87C82.8711 36.27 82.9978 35.7367 83.2511 35.27C83.5111 34.7967 83.8645 34.4233 84.3111 34.15C84.7645 33.8767 85.2811 33.74 85.8611 33.74C86.3345 33.74 86.7411 33.83 87.0811 34.01C87.4278 34.1833 87.6945 34.4333 87.8811 34.76C88.0745 35.08 88.1711 35.4633 88.1711 35.91C88.1711 36.51 88.0411 37.0467 87.7811 37.52C87.5278 37.9867 87.1745 38.3567 86.7211 38.63C86.2745 38.9033 85.7611 39.04 85.1811 39.04ZM85.2211 38.59C85.6945 38.59 86.1145 38.4767 86.4811 38.25C86.8478 38.0233 87.1378 37.71 87.3511 37.31C87.5645 36.9033 87.6711 36.4467 87.6711 35.94C87.6711 35.38 87.5078 34.95 87.1811 34.65C86.8611 34.3433 86.4078 34.19 85.8211 34.19C85.3545 34.19 84.9345 34.3067 84.5611 34.54C84.1945 34.7667 83.9045 35.08 83.6911 35.48C83.4778 35.88 83.3711 36.3333 83.3711 36.84C83.3711 37.3933 83.5311 37.8233 83.8511 38.13C84.1778 38.4367 84.6345 38.59 85.2211 38.59Z" stroke="url(#paint13_radial_964_429)"/>
<path d="M91.7123 39.04C91.2523 39.04 90.8723 38.95 90.5723 38.77C90.279 38.5833 90.079 38.3233 89.9723 37.99C89.8656 37.65 89.8556 37.2533 89.9423 36.8L90.5423 33.78H91.0423L90.4423 36.8C90.3356 37.3533 90.3956 37.79 90.6223 38.11C90.8556 38.43 91.2623 38.59 91.8423 38.59C92.4356 38.59 92.929 38.4267 93.3223 38.1C93.7223 37.7667 93.9856 37.2733 94.1123 36.62L94.6823 33.78H95.1823L94.1423 39H93.6523L93.9523 37.49L94.0823 37.62C93.8356 38.1133 93.5056 38.4733 93.0923 38.7C92.6856 38.9267 92.2256 39.04 91.7123 39.04Z" stroke="url(#paint14_radial_964_429)"/>
<path d="M100.132 33.74C100.605 33.74 100.988 33.8333 101.282 34.02C101.582 34.2 101.785 34.46 101.892 34.8C102.005 35.1333 102.015 35.5267 101.922 35.98L101.322 39H100.822L101.422 35.98C101.535 35.4267 101.472 34.99 101.232 34.67C100.998 34.35 100.588 34.19 100.002 34.19C99.4084 34.19 98.9118 34.3567 98.5118 34.69C98.1118 35.0167 97.8451 35.5067 97.7118 36.16L97.1418 39H96.6418L97.6818 33.78H98.1718L97.8718 35.29L97.7418 35.16C97.9884 34.6667 98.3184 34.3067 98.7318 34.08C99.1451 33.8533 99.6118 33.74 100.132 33.74Z" stroke="url(#paint15_radial_964_429)"/>
<path d="M105.94 39.04C105.494 39.04 105.1 38.9533 104.76 38.78C104.42 38.6067 104.157 38.3567 103.97 38.03C103.784 37.7033 103.69 37.3167 103.69 36.87C103.69 36.4167 103.76 36 103.9 35.62C104.047 35.24 104.254 34.91 104.52 34.63C104.787 34.35 105.1 34.1333 105.46 33.98C105.82 33.82 106.214 33.74 106.64 33.74C107.1 33.74 107.49 33.8233 107.81 33.99C108.13 34.15 108.374 34.3867 108.54 34.7C108.714 35.0067 108.8 35.38 108.8 35.82C108.8 36.2867 108.734 36.7167 108.6 37.11C108.467 37.5033 108.274 37.8433 108.02 38.13C107.767 38.4167 107.464 38.64 107.11 38.8C106.764 38.96 106.374 39.04 105.94 39.04ZM106.04 38.59C106.514 38.59 106.934 38.4767 107.3 38.25C107.667 38.0233 107.957 37.71 108.17 37.31C108.384 36.9033 108.49 36.4467 108.49 35.94C108.49 35.38 108.327 34.95 108 34.65C107.68 34.3433 107.227 34.19 106.64 34.19C106.174 34.19 105.754 34.3067 105.38 34.54C105.014 34.7667 104.724 35.08 104.51 35.48C104.297 35.88 104.19 36.3333 104.19 36.84C104.19 37.3933 104.35 37.8233 104.67 38.13C104.997 38.4367 105.454 38.59 106.04 38.59ZM107.94 39L108.26 37.37L108.54 36.46L108.62 35.5L109.4 31.58H109.9L108.42 39H107.94Z" stroke="url(#paint16_radial_964_429)"/>
<path d="M115.397 39L116.697 32.46H114.177L114.277 32H119.827L119.737 32.46H117.217L115.907 39H115.397Z" stroke="url(#paint17_radial_964_429)"/>
<path d="M121.605 39.04C121.138 39.04 120.731 38.9533 120.385 38.78C120.038 38.6 119.768 38.3467 119.575 38.02C119.388 37.6933 119.295 37.31 119.295 36.87C119.295 36.27 119.421 35.7367 119.675 35.27C119.935 34.7967 120.288 34.4233 120.735 34.15C121.188 33.8767 121.705 33.74 122.285 33.74C122.758 33.74 123.165 33.83 123.505 34.01C123.851 34.1833 124.118 34.4333 124.305 34.76C124.498 35.08 124.595 35.4633 124.595 35.91C124.595 36.51 124.465 37.0467 124.205 37.52C123.951 37.9867 123.598 38.3567 123.145 38.63C122.698 38.9033 122.185 39.04 121.605 39.04ZM121.645 38.59C122.118 38.59 122.538 38.4767 122.905 38.25C123.271 38.0233 123.561 37.71 123.775 37.31C123.988 36.9033 124.095 36.4467 124.095 35.94C124.095 35.38 123.931 34.95 123.605 34.65C123.285 34.3433 122.831 34.19 122.245 34.19C121.778 34.19 121.358 34.3067 120.985 34.54C120.618 34.7667 120.328 35.08 120.115 35.48C119.901 35.88 119.795 36.3333 119.795 36.84C119.795 37.3933 119.955 37.8233 120.275 38.13C120.601 38.4367 121.058 38.59 121.645 38.59Z" stroke="url(#paint18_radial_964_429)"/>
<path d="M126.666 37.55L126.756 36.93L130.806 33.78H131.536L128.736 35.95L128.456 36.17L126.666 37.55ZM125.976 39L127.456 31.58H127.956L126.476 39H125.976ZM130.096 39L128.366 36.14L128.716 35.78L130.676 39H130.096Z" stroke="url(#paint19_radial_964_429)"/>
<path d="M134.232 39.04C133.746 39.04 133.322 38.9533 132.962 38.78C132.602 38.6 132.326 38.3467 132.132 38.02C131.946 37.6933 131.852 37.3033 131.852 36.85C131.852 36.2567 131.976 35.7267 132.222 35.26C132.476 34.7933 132.816 34.4233 133.242 34.15C133.676 33.8767 134.162 33.74 134.702 33.74C135.162 33.74 135.556 33.8267 135.882 34C136.209 34.1733 136.462 34.4233 136.642 34.75C136.829 35.07 136.922 35.46 136.922 35.92C136.922 36.02 136.916 36.12 136.902 36.22C136.889 36.32 136.876 36.4133 136.862 36.5H132.232L132.302 36.11H136.622L136.422 36.28C136.496 35.82 136.466 35.4367 136.332 35.13C136.199 34.8167 135.989 34.58 135.702 34.42C135.422 34.2533 135.086 34.17 134.692 34.17C134.239 34.17 133.832 34.2867 133.472 34.52C133.119 34.7467 132.842 35.06 132.642 35.46C132.442 35.8533 132.342 36.31 132.342 36.83C132.342 37.3967 132.506 37.8333 132.832 38.14C133.159 38.44 133.639 38.59 134.272 38.59C134.646 38.59 134.986 38.53 135.292 38.41C135.606 38.2833 135.862 38.11 136.062 37.89L136.292 38.24C136.066 38.4867 135.769 38.6833 135.402 38.83C135.042 38.97 134.652 39.04 134.232 39.04Z" stroke="url(#paint20_radial_964_429)"/>
<path d="M141.799 33.74C142.272 33.74 142.656 33.8333 142.949 34.02C143.249 34.2 143.452 34.46 143.559 34.8C143.672 35.1333 143.682 35.5267 143.589 35.98L142.989 39H142.489L143.089 35.98C143.202 35.4267 143.139 34.99 142.899 34.67C142.666 34.35 142.256 34.19 141.669 34.19C141.076 34.19 140.579 34.3567 140.179 34.69C139.779 35.0167 139.512 35.5067 139.379 36.16L138.809 39H138.309L139.349 33.78H139.839L139.539 35.29L139.409 35.16C139.656 34.6667 139.986 34.3067 140.399 34.08C140.812 33.8533 141.279 33.74 141.799 33.74Z" stroke="url(#paint21_radial_964_429)"/>
<defs>
<radialGradient id="paint0_radial_964_429" cx="0" cy="0" r="1" gradientUnits="userSpaceOnUse" gradientTransform="translate(196 21) rotate(-175.082) scale(169.123 596.776)">
<stop stop-color="#051DF5"/>
<stop offset="1" stop-color="#04FBFB"/>
</radialGradient>
<radialGradient id="paint1_radial_964_429" cx="0" cy="0" r="1" gradientUnits="userSpaceOnUse" gradientTransform="translate(196 21) rotate(-175.082) scale(169.123 596.776)">
<stop stop-color="#051DF5"/>
<stop offset="1" stop-color="#04FBFB"/>
</radialGradient>
<radialGradient id="paint2_radial_964_429" cx="0" cy="0" r="1" gradientUnits="userSpaceOnUse" gradientTransform="translate(196 21) rotate(-175.082) scale(169.123 596.776)">
<stop stop-color="#051DF5"/>
<stop offset="1" stop-color="#04FBFB"/>
</radialGradient>
<radialGradient id="paint3_radial_964_429" cx="0" cy="0" r="1" gradientUnits="userSpaceOnUse" gradientTransform="translate(196 21) rotate(-175.082) scale(169.123 596.776)">
<stop stop-color="#051DF5"/>
<stop offset="1" stop-color="#04FBFB"/>
</radialGradient>
<radialGradient id="paint4_radial_964_429" cx="0" cy="0" r="1" gradientUnits="userSpaceOnUse" gradientTransform="translate(196 21) rotate(-175.082) scale(169.123 596.776)">
<stop stop-color="#051DF5"/>
<stop offset="1" stop-color="#04FBFB"/>
</radialGradient>
<radialGradient id="paint5_radial_964_429" cx="0" cy="0" r="1" gradientUnits="userSpaceOnUse" gradientTransform="translate(196 21) rotate(-175.082) scale(169.123 596.776)">
<stop stop-color="#051DF5"/>
<stop offset="1" stop-color="#04FBFB"/>
</radialGradient>
<radialGradient id="paint6_radial_964_429" cx="0" cy="0" r="1" gradientUnits="userSpaceOnUse" gradientTransform="translate(196 21) rotate(-175.082) scale(169.123 596.776)">
<stop stop-color="#051DF5"/>
<stop offset="1" stop-color="#04FBFB"/>
</radialGradient>
<radialGradient id="paint7_radial_964_429" cx="0" cy="0" r="1" gradientUnits="userSpaceOnUse" gradientTransform="translate(196 21) rotate(-175.082) scale(169.123 596.776)">
<stop stop-color="#051DF5"/>
<stop offset="1" stop-color="#04FBFB"/>
</radialGradient>
<radialGradient id="paint8_radial_964_429" cx="0" cy="0" r="1" gradientUnits="userSpaceOnUse" gradientTransform="translate(196 21) rotate(-175.082) scale(169.123 596.776)">
<stop stop-color="#051DF5"/>
<stop offset="1" stop-color="#04FBFB"/>
</radialGradient>
<radialGradient id="paint9_radial_964_429" cx="0" cy="0" r="1" gradientUnits="userSpaceOnUse" gradientTransform="translate(196 21) rotate(-175.082) scale(169.123 596.776)">
<stop stop-color="#051DF5"/>
<stop offset="1" stop-color="#04FBFB"/>
</radialGradient>
<radialGradient id="paint10_radial_964_429" cx="0" cy="0" r="1" gradientUnits="userSpaceOnUse" gradientTransform="translate(196 21) rotate(-175.082) scale(169.123 596.776)">
<stop stop-color="#051DF5"/>
<stop offset="1" stop-color="#04FBFB"/>
</radialGradient>
<radialGradient id="paint11_radial_964_429" cx="0" cy="0" r="1" gradientUnits="userSpaceOnUse" gradientTransform="translate(196 21) rotate(-175.082) scale(169.123 596.776)">
<stop stop-color="#051DF5"/>
<stop offset="1" stop-color="#04FBFB"/>
</radialGradient>
<radialGradient id="paint12_radial_964_429" cx="0" cy="0" r="1" gradientUnits="userSpaceOnUse" gradientTransform="translate(196 21) rotate(-175.082) scale(169.123 596.776)">
<stop stop-color="#051DF5"/>
<stop offset="1" stop-color="#04FBFB"/>
</radialGradient>
<radialGradient id="paint13_radial_964_429" cx="0" cy="0" r="1" gradientUnits="userSpaceOnUse" gradientTransform="translate(196 21) rotate(-175.082) scale(169.123 596.776)">
<stop stop-color="#051DF5"/>
<stop offset="1" stop-color="#04FBFB"/>
</radialGradient>
<radialGradient id="paint14_radial_964_429" cx="0" cy="0" r="1" gradientUnits="userSpaceOnUse" gradientTransform="translate(196 21) rotate(-175.082) scale(169.123 596.776)">
<stop stop-color="#051DF5"/>
<stop offset="1" stop-color="#04FBFB"/>
</radialGradient>
<radialGradient id="paint15_radial_964_429" cx="0" cy="0" r="1" gradientUnits="userSpaceOnUse" gradientTransform="translate(196 21) rotate(-175.082) scale(169.123 596.776)">
<stop stop-color="#051DF5"/>
<stop offset="1" stop-color="#04FBFB"/>
</radialGradient>
<radialGradient id="paint16_radial_964_429" cx="0" cy="0" r="1" gradientUnits="userSpaceOnUse" gradientTransform="translate(196 21) rotate(-175.082) scale(169.123 596.776)">
<stop stop-color="#051DF5"/>
<stop offset="1" stop-color="#04FBFB"/>
</radialGradient>
<radialGradient id="paint17_radial_964_429" cx="0" cy="0" r="1" gradientUnits="userSpaceOnUse" gradientTransform="translate(196 21) rotate(-175.082) scale(169.123 596.776)">
<stop stop-color="#051DF5"/>
<stop offset="1" stop-color="#04FBFB"/>
</radialGradient>
<radialGradient id="paint18_radial_964_429" cx="0" cy="0" r="1" gradientUnits="userSpaceOnUse" gradientTransform="translate(196 21) rotate(-175.082) scale(169.123 596.776)">
<stop stop-color="#051DF5"/>
<stop offset="1" stop-color="#04FBFB"/>
</radialGradient>
<radialGradient id="paint19_radial_964_429" cx="0" cy="0" r="1" gradientUnits="userSpaceOnUse" gradientTransform="translate(196 21) rotate(-175.082) scale(169.123 596.776)">
<stop stop-color="#051DF5"/>
<stop offset="1" stop-color="#04FBFB"/>
</radialGradient>
<radialGradient id="paint20_radial_964_429" cx="0" cy="0" r="1" gradientUnits="userSpaceOnUse" gradientTransform="translate(196 21) rotate(-175.082) scale(169.123 596.776)">
<stop stop-color="#051DF5"/>
<stop offset="1" stop-color="#04FBFB"/>
</radialGradient>
<radialGradient id="paint21_radial_964_429" cx="0" cy="0" r="1" gradientUnits="userSpaceOnUse" gradientTransform="translate(196 21) rotate(-175.082) scale(169.123 596.776)">
<stop stop-color="#051DF5"/>
<stop offset="1" stop-color="#04FBFB"/>
</radialGradient>
</defs>
</svg>
