<svg width="89" height="135" viewBox="0 0 89 135" fill="none" xmlns="http://www.w3.org/2000/svg">
<g opacity="0.3">
<g opacity="0.3" filter="url(#filter0_f_975_3)">
<path d="M50.9436 128.156C51.1043 135.416 48.2056 79.2097 7.52171 76.7893L94.1242 76.7461C54.7031 79.2347 50.9436 128.156 50.9436 128.156Z" fill="url(#paint0_linear_975_3)" fill-opacity="0.5"/>
</g>
<g opacity="0.3" filter="url(#filter1_f_975_3)">
<path d="M50.9436 128.156C51.1043 135.416 48.2056 79.2097 7.52171 76.7893L94.1242 76.7461C54.7031 79.2347 50.9436 128.156 50.9436 128.156Z" fill="url(#paint1_linear_975_3)" fill-opacity="0.5"/>
</g>
<g opacity="0.3" filter="url(#filter2_f_975_3)">
<path d="M50.9436 128.156C51.1043 135.416 48.2056 79.2097 7.52171 76.7893L94.1242 76.7461C54.7031 79.2347 50.9436 128.156 50.9436 128.156Z" fill="url(#paint2_linear_975_3)" fill-opacity="0.5"/>
</g>
<path opacity="0.5" d="M50.9436 128.156C51.1043 135.416 48.2056 79.2097 7.52171 76.7893L94.1242 76.7461C54.7031 79.2347 50.9436 128.156 50.9436 128.156Z" fill="url(#paint3_linear_975_3)" fill-opacity="0.5"/>
</g>
<g filter="url(#filter3_f_975_3)">
<path d="M50.9436 127.235C51.1043 134.495 48.2056 78.2881 7.52171 75.8677M94.1242 75.8246C74.6537 77.0537 63.8827 89.6101 57.9675 102.005M57.8869 102.174C57.3936 99.4114 53.9003 77.9556 29.2827 75.8569M53.5733 113.761C52.9535 109.051 48.2524 78.1108 17.5217 75.8627M83.2827 75.83C60.7827 77.8138 55.4487 93.9409 55.4487 93.9409M71.7827 75.8357C55.4487 76.6618 52.2282 88.1812 52.2282 88.1812" stroke="url(#paint4_linear_975_3)" stroke-width="0.5"/>
</g>
<g opacity="0.3">
<g opacity="0.3" filter="url(#filter4_f_975_3)">
<path d="M50.4053 7.15715C50.3255 -0.283934 52.5975 57.3433 93.252 60.2661L6.65412 59.3683C46.1007 57.247 50.4053 7.15715 50.4053 7.15715Z" fill="url(#paint5_linear_975_3)" fill-opacity="0.5"/>
</g>
<g opacity="0.3" filter="url(#filter5_f_975_3)">
<path d="M50.4053 7.15715C50.3255 -0.283934 52.5975 57.3433 93.252 60.2661L6.65412 59.3683C46.1007 57.247 50.4053 7.15715 50.4053 7.15715Z" fill="url(#paint6_linear_975_3)" fill-opacity="0.5"/>
</g>
<g opacity="0.3" filter="url(#filter6_f_975_3)">
<path d="M50.4053 7.15715C50.3255 -0.283934 52.5975 57.3433 93.252 60.2661L6.65412 59.3683C46.1007 57.247 50.4053 7.15715 50.4053 7.15715Z" fill="url(#paint7_linear_975_3)" fill-opacity="0.5"/>
</g>
<path opacity="0.5" d="M50.4053 7.15715C50.3255 -0.283934 52.5975 57.3433 93.252 60.2661L6.65412 59.3683C46.1007 57.247 50.4053 7.15715 50.4053 7.15715Z" fill="url(#paint8_linear_975_3)" fill-opacity="0.5"/>
</g>
<g filter="url(#filter7_f_975_3)">
<path d="M50.395 8.10148C50.3152 0.660402 52.5872 58.2877 93.2418 61.2105M6.64387 60.3127C26.127 59.2649 37.0372 46.5153 43.0903 33.8789M43.1728 33.7059C43.6352 36.5424 46.8892 58.5665 71.482 60.9849M47.6153 21.8791C48.1825 26.7131 52.5385 58.4689 83.2423 61.1068M17.4848 60.4251C40.0056 58.6369 45.519 42.1692 45.519 42.1692M28.9842 60.5443C45.3264 59.8754 48.6752 48.1063 48.6752 48.1063" stroke="url(#paint9_linear_975_3)" stroke-width="0.5"/>
</g>
<path d="M16.9147 72.8346L16.9787 64.4349L20.4346 64.4612C21.1786 64.4668 21.8137 64.5917 22.3398 64.8357C22.874 65.0798 23.2833 65.4269 23.5679 65.8771C23.8525 66.3273 23.9925 66.8603 23.9878 67.4763C23.9831 68.0923 23.835 68.6232 23.5436 69.069C23.2523 69.5068 22.8377 69.8436 22.2999 70.0795C21.7701 70.3075 21.1333 70.4187 20.3893 70.413L17.7974 70.3933L18.4987 69.6906L18.4747 72.8465L16.9147 72.8346ZM22.4106 72.8765L20.3099 69.8124L21.9778 69.8251L24.0905 72.8893L22.4106 72.8765ZM18.4975 69.8586L17.8071 69.1093L20.3271 69.1285C21.0151 69.1337 21.5322 68.9897 21.8784 68.6963C22.2327 68.403 22.4118 67.9923 22.4158 67.4643C22.4199 66.9284 22.247 66.515 21.8972 66.2244C21.5554 65.9338 21.0405 65.7858 20.3526 65.7806L17.8326 65.7614L18.5345 64.9987L18.4975 69.8586ZM28.5591 73.0073C27.8471 73.0019 27.2242 72.8571 26.6904 72.5731C26.1646 72.281 25.7556 71.8859 25.4634 71.3877C25.1791 70.8895 25.0394 70.3244 25.0443 69.6924C25.0491 69.0524 25.1934 68.4895 25.4771 68.0037C25.7689 67.5099 26.1638 67.1249 26.662 66.8487C27.1681 66.5725 27.7411 66.4369 28.3811 66.4417C29.0051 66.4465 29.56 66.5867 30.046 66.8624C30.5319 67.1381 30.9129 67.5251 31.1891 68.0232C31.4654 68.5213 31.6009 69.1063 31.5958 69.7783C31.5953 69.8423 31.5908 69.9143 31.5821 69.9942C31.5815 70.0742 31.577 70.1502 31.5684 70.2221L26.2286 70.1815L26.2362 69.1855L30.784 69.2201L30.1937 69.5276C30.2045 69.1597 30.1309 68.8351 29.9731 68.5539C29.8152 68.2727 29.5969 68.0511 29.3181 67.8889C29.0473 67.7269 28.732 67.6445 28.372 67.6417C28.004 67.6389 27.6794 67.7164 27.3982 67.8743C27.125 68.0322 26.9073 68.2546 26.7451 68.5413C26.5909 68.8202 26.5124 69.1516 26.5095 69.5356L26.5077 69.7756C26.5047 70.1596 26.5901 70.5002 26.7639 70.7976C26.9376 71.0949 27.1839 71.3248 27.5027 71.4872C27.8214 71.6496 28.1888 71.7324 28.6048 71.7356C28.9648 71.7383 29.2892 71.6848 29.5781 71.575C29.8669 71.4652 30.1242 71.2912 30.3501 71.0529L31.147 71.983C30.8564 72.3168 30.4905 72.574 30.0491 72.7546C29.6158 72.9273 29.1191 73.0116 28.5591 73.0073ZM36.5637 73.0683C36.0437 73.0643 35.5687 72.9407 35.1385 72.6974C34.7163 72.4542 34.3791 72.0916 34.1268 71.6097C33.8825 71.1198 33.7632 70.5029 33.7688 69.7589C33.7746 69.0069 33.8993 68.3918 34.1429 67.9137C34.3946 67.4356 34.7333 67.0821 35.159 66.8534C35.5848 66.6166 36.0697 66.5003 36.6137 66.5044C37.2457 66.5093 37.8006 66.6495 38.2786 66.9251C38.7645 67.2008 39.1456 67.5838 39.4218 68.0739C39.7061 68.5641 39.8457 69.1411 39.8407 69.8051C39.8356 70.4691 39.6872 71.048 39.3954 71.5418C39.1117 72.0276 38.7248 72.4047 38.2348 72.673C37.7527 72.9413 37.1957 73.0731 36.5637 73.0683ZM32.9947 75.2851L33.0613 66.5494L34.4892 66.5603L34.4777 68.0722L34.4167 69.7758L34.5238 71.4807L34.4947 75.2966L32.9947 75.2851ZM36.4055 71.783C36.7655 71.7858 37.0861 71.7082 37.3673 71.5503C37.6565 71.3925 37.8863 71.1623 38.0566 70.8596C38.2269 70.5568 38.3136 70.2015 38.3167 69.7935C38.3199 69.3775 38.2386 69.0209 38.0729 68.7236C37.9072 68.4184 37.681 68.1846 37.3942 68.0224C37.1154 67.8603 36.796 67.7779 36.436 67.7751C36.076 67.7724 35.7514 67.8499 35.4622 68.0077C35.173 68.1655 34.9433 68.3958 34.773 68.6985C34.6027 68.9932 34.516 69.3486 34.5128 69.7645C34.5097 70.1725 34.591 70.5292 34.7567 70.8344C34.9224 71.1397 35.1486 71.3734 35.4354 71.5356C35.7221 71.6978 36.0455 71.7803 36.4055 71.783ZM43.9501 73.1245C43.4061 73.1204 42.9269 73.0167 42.5124 72.8136C42.098 72.6024 41.7764 72.2879 41.5476 71.8702C41.3188 71.4444 41.2068 70.9116 41.2117 70.2716L41.2396 66.6117L42.7396 66.6231L42.7132 70.079C42.7088 70.655 42.8336 71.0879 43.0874 71.3779C43.3492 71.6599 43.7201 71.8027 44.2001 71.8064C44.5521 71.8091 44.8566 71.7394 45.1137 71.5973C45.3788 71.4553 45.5845 71.2409 45.7307 70.954C45.8848 70.6672 45.9636 70.3118 45.9668 69.8878L45.9915 66.6479L47.4914 66.6593L47.4426 73.0671L46.0147 73.0562L46.0278 71.3283L46.2758 71.8582C46.0566 72.2725 45.7382 72.5901 45.3205 72.8109C44.9029 73.0238 44.4461 73.1283 43.9501 73.1245ZM51.8178 73.1844C51.1138 73.1791 50.5712 72.9949 50.19 72.632C49.8088 72.2611 49.6209 71.7197 49.6263 71.0077L49.6701 65.2598L51.1701 65.2713L51.1266 70.9831C51.1242 71.2871 51.1984 71.5237 51.3492 71.6928C51.5079 71.862 51.7272 71.9477 52.0072 71.9498C52.3432 71.9524 52.6239 71.8665 52.8492 71.6922L53.2611 72.7634C53.084 72.9061 52.8672 73.0124 52.6106 73.0825C52.3541 73.1525 52.0898 73.1865 51.8178 73.1844ZM48.5938 67.9157L48.603 66.7158L52.8749 66.7483L52.8657 67.9483L48.5938 67.9157ZM58.4402 73.1509L58.4501 71.8549L58.3682 71.5783L58.3854 69.3103C58.3888 68.8703 58.2594 68.5293 57.9972 68.2873C57.7351 68.0373 57.3361 67.9103 56.8001 67.9062C56.4401 67.9035 56.0837 67.9568 55.7308 68.0661C55.386 68.1755 55.0928 68.3292 54.8513 68.5274L54.2716 67.4309C54.6176 67.1696 55.0271 66.9767 55.5001 66.8523C55.9811 66.7199 56.4776 66.6557 56.9896 66.6596C57.9176 66.6667 58.6318 66.8961 59.1324 67.348C59.641 67.7918 59.8918 68.4778 59.8848 69.4058L59.8562 73.1616L58.4402 73.1509ZM56.4236 73.2195C55.9436 73.2158 55.5243 73.1327 55.1655 72.9699C54.8068 72.7992 54.5285 72.5691 54.3307 72.2795C54.141 71.9821 54.0475 71.6494 54.0503 71.2814C54.0531 70.9214 54.1395 70.598 54.3097 70.3113C54.4879 70.0247 54.7736 69.7988 55.1669 69.6338C55.5602 69.4688 56.0808 69.3888 56.7288 69.3937L58.5887 69.4079L58.5811 70.4039L56.8292 70.3905C56.3172 70.3866 55.9726 70.468 55.7953 70.6346C55.6181 70.7933 55.5286 70.9926 55.5267 71.2326C55.5247 71.5046 55.631 71.7214 55.8458 71.8831C56.0606 72.0447 56.3599 72.127 56.7439 72.1299C57.1119 72.1327 57.4405 72.0512 57.7298 71.8854C58.0271 71.7197 58.241 71.4733 58.3715 71.1463L58.6166 72.0482C58.4697 72.4231 58.2075 72.7131 57.83 72.9182C57.4604 73.1234 56.9916 73.2238 56.4236 73.2195ZM64.1925 73.2787C63.4885 73.2733 62.9459 73.0892 62.5646 72.7263C62.1834 72.3553 61.9955 71.8139 62.001 71.1019L62.0447 65.3541L63.5447 65.3655L63.5012 71.0773C63.4989 71.3813 63.5731 71.6179 63.7238 71.7871C63.8825 71.9563 64.1019 72.0419 64.3819 72.0441C64.7179 72.0466 64.9985 71.9608 65.2239 71.7865L65.6357 72.8576C65.4586 73.0003 65.2418 73.1067 64.9853 73.1767C64.7287 73.2468 64.4644 73.2807 64.1925 73.2787ZM60.9685 68.01L60.9776 66.81L65.2495 66.8425L65.2404 68.0425L60.9685 68.01ZM66.867 73.215L66.9158 66.8072L68.4157 66.8186L68.3669 73.2265L66.867 73.215ZM67.6798 65.757C67.3998 65.7549 67.1685 65.6651 66.9858 65.4877C66.8112 65.3104 66.7248 65.0977 66.7267 64.8497C66.7286 64.5937 66.8182 64.3824 66.9955 64.2158C67.1808 64.0412 67.4135 63.9549 67.6935 63.9571C67.9735 63.9592 68.2008 64.0449 68.3755 64.2143C68.5583 64.3757 68.6488 64.5804 68.6469 64.8283C68.6449 65.0923 68.5552 65.3157 68.3778 65.4983C68.2004 65.673 67.9678 65.7592 67.6798 65.757ZM73.2149 73.3474C72.5589 73.3424 71.976 73.1979 71.4661 72.9141C70.9563 72.6222 70.5553 72.2271 70.2631 71.7289C69.9709 71.2306 69.8272 70.6655 69.832 70.0335C69.8369 69.3935 69.9892 68.8307 70.2889 68.345C70.5887 67.8512 70.9956 67.4663 71.5097 67.1902C72.0238 66.9141 72.6089 66.7786 73.2649 66.7836C73.9289 66.7886 74.5158 66.9331 75.0256 67.217C75.5435 67.5009 75.9445 67.888 76.2288 68.3782C76.5211 68.8684 76.6648 69.4375 76.6598 70.0855C76.655 70.7175 76.5027 71.2804 76.203 71.7741C75.9112 72.2679 75.5042 72.6568 74.982 72.9408C74.4679 73.2169 73.8789 73.3524 73.2149 73.3474ZM73.2247 72.0634C73.5927 72.0662 73.9213 71.9887 74.2105 71.8309C74.4997 71.6731 74.7254 71.4428 74.8877 71.1401C75.0581 70.8373 75.1448 70.482 75.1479 70.074C75.151 69.658 75.0697 69.3014 74.904 69.0041C74.7463 68.6989 74.5241 68.4652 74.2373 68.303C73.9506 68.1408 73.6272 68.0584 73.2672 68.0556C72.8992 68.0528 72.5706 68.1303 72.2814 68.2881C72.0002 68.446 71.7744 68.6763 71.6041 68.979C71.4339 69.2737 71.3471 69.6291 71.344 70.045C71.3409 70.453 71.4222 70.8097 71.5878 71.1149C71.7535 71.4202 71.9757 71.6539 72.2545 71.816C72.5413 71.9782 72.8647 72.0607 73.2247 72.0634ZM81.755 66.8482C82.267 66.8521 82.7222 66.9556 83.1207 67.1586C83.5271 67.3617 83.8448 67.6722 84.0736 68.0899C84.3025 68.4997 84.4145 69.0285 84.4095 69.6765L84.3816 73.3484L82.8816 73.337L82.9081 69.8571C82.9124 69.2891 82.7797 68.8641 82.5098 68.582C82.248 68.3 81.877 68.1572 81.397 68.1535C81.0451 68.1509 80.7325 68.2205 80.4594 68.3624C80.1863 68.5043 79.9727 68.7187 79.8185 69.0055C79.6724 69.2844 79.5977 69.6399 79.5944 70.0719L79.5697 73.3118L78.0698 73.3004L78.1186 66.8925L79.5465 66.9034L79.5334 68.6314L79.2854 68.1015C79.5125 67.6952 79.8389 67.3857 80.2645 67.1729C80.6982 66.9522 81.195 66.844 81.755 66.8482Z" fill="#07D1FD"/>
<defs>
<filter id="filter0_f_975_3" x="1.52173" y="70.7462" width="98.6025" height="64.0568" filterUnits="userSpaceOnUse" color-interpolation-filters="sRGB">
<feFlood flood-opacity="0" result="BackgroundImageFix"/>
<feBlend mode="normal" in="SourceGraphic" in2="BackgroundImageFix" result="shape"/>
<feGaussianBlur stdDeviation="3" result="effect1_foregroundBlur_975_3"/>
</filter>
<filter id="filter1_f_975_3" x="3.52173" y="72.7462" width="94.6025" height="60.0568" filterUnits="userSpaceOnUse" color-interpolation-filters="sRGB">
<feFlood flood-opacity="0" result="BackgroundImageFix"/>
<feBlend mode="normal" in="SourceGraphic" in2="BackgroundImageFix" result="shape"/>
<feGaussianBlur stdDeviation="2" result="effect1_foregroundBlur_975_3"/>
</filter>
<filter id="filter2_f_975_3" x="5.52173" y="74.7462" width="90.6025" height="56.0568" filterUnits="userSpaceOnUse" color-interpolation-filters="sRGB">
<feFlood flood-opacity="0" result="BackgroundImageFix"/>
<feBlend mode="normal" in="SourceGraphic" in2="BackgroundImageFix" result="shape"/>
<feGaussianBlur stdDeviation="1" result="effect1_foregroundBlur_975_3"/>
</filter>
<filter id="filter3_f_975_3" x="6.80732" y="74.8751" width="88.0332" height="53.9563" filterUnits="userSpaceOnUse" color-interpolation-filters="sRGB">
<feFlood flood-opacity="0" result="BackgroundImageFix"/>
<feBlend mode="normal" in="SourceGraphic" in2="BackgroundImageFix" result="shape"/>
<feGaussianBlur stdDeviation="0.35" result="effect1_foregroundBlur_975_3"/>
</filter>
<filter id="filter4_f_975_3" x="0.654175" y="0.494568" width="98.5978" height="65.7715" filterUnits="userSpaceOnUse" color-interpolation-filters="sRGB">
<feFlood flood-opacity="0" result="BackgroundImageFix"/>
<feBlend mode="normal" in="SourceGraphic" in2="BackgroundImageFix" result="shape"/>
<feGaussianBlur stdDeviation="3" result="effect1_foregroundBlur_975_3"/>
</filter>
<filter id="filter5_f_975_3" x="2.65417" y="2.49457" width="94.5978" height="61.7715" filterUnits="userSpaceOnUse" color-interpolation-filters="sRGB">
<feFlood flood-opacity="0" result="BackgroundImageFix"/>
<feBlend mode="normal" in="SourceGraphic" in2="BackgroundImageFix" result="shape"/>
<feGaussianBlur stdDeviation="2" result="effect1_foregroundBlur_975_3"/>
</filter>
<filter id="filter6_f_975_3" x="4.65417" y="4.49457" width="90.5978" height="57.7715" filterUnits="userSpaceOnUse" color-interpolation-filters="sRGB">
<feFlood flood-opacity="0" result="BackgroundImageFix"/>
<feBlend mode="normal" in="SourceGraphic" in2="BackgroundImageFix" result="shape"/>
<feGaussianBlur stdDeviation="1" result="effect1_foregroundBlur_975_3"/>
</filter>
<filter id="filter7_f_975_3" x="5.93" y="6.4889" width="88.0293" height="55.6709" filterUnits="userSpaceOnUse" color-interpolation-filters="sRGB">
<feFlood flood-opacity="0" result="BackgroundImageFix"/>
<feBlend mode="normal" in="SourceGraphic" in2="BackgroundImageFix" result="shape"/>
<feGaussianBlur stdDeviation="0.35" result="effect1_foregroundBlur_975_3"/>
</filter>
<linearGradient id="paint0_linear_975_3" x1="51.0481" y1="129.578" x2="51.0002" y2="76.7675" gradientUnits="userSpaceOnUse">
<stop stop-color="#00E0FF"/>
<stop offset="1" stop-color="#58009D"/>
</linearGradient>
<linearGradient id="paint1_linear_975_3" x1="51.0481" y1="129.578" x2="51.0002" y2="76.7675" gradientUnits="userSpaceOnUse">
<stop stop-color="#04E1FF"/>
<stop offset="1" stop-color="#58009D"/>
</linearGradient>
<linearGradient id="paint2_linear_975_3" x1="51.0481" y1="129.578" x2="51.0002" y2="76.7675" gradientUnits="userSpaceOnUse">
<stop stop-color="#04E1FF"/>
<stop offset="1" stop-color="#58009D"/>
</linearGradient>
<linearGradient id="paint3_linear_975_3" x1="51.0481" y1="129.578" x2="51.0002" y2="76.7675" gradientUnits="userSpaceOnUse">
<stop stop-color="#04E1FF"/>
<stop offset="1" stop-color="#58009D"/>
</linearGradient>
<linearGradient id="paint4_linear_975_3" x1="50.5217" y1="100.476" x2="50.5217" y2="75.8246" gradientUnits="userSpaceOnUse">
<stop stop-color="#7102FE" stop-opacity="0.34"/>
<stop offset="1" stop-color="#07E1FF" stop-opacity="0"/>
</linearGradient>
<linearGradient id="paint5_linear_975_3" x1="50.3167" y1="5.69943" x2="49.7782" y2="59.8155" gradientUnits="userSpaceOnUse">
<stop stop-color="#00E0FF"/>
<stop offset="1" stop-color="#58009D"/>
</linearGradient>
<linearGradient id="paint6_linear_975_3" x1="50.3167" y1="5.69943" x2="49.7782" y2="59.8155" gradientUnits="userSpaceOnUse">
<stop stop-color="#04E1FF"/>
<stop offset="1" stop-color="#58009D"/>
</linearGradient>
<linearGradient id="paint7_linear_975_3" x1="50.3167" y1="5.69943" x2="49.7782" y2="59.8155" gradientUnits="userSpaceOnUse">
<stop stop-color="#04E1FF"/>
<stop offset="1" stop-color="#58009D"/>
</linearGradient>
<linearGradient id="paint8_linear_975_3" x1="50.3167" y1="5.69943" x2="49.7782" y2="59.8155" gradientUnits="userSpaceOnUse">
<stop stop-color="#04E1FF"/>
<stop offset="1" stop-color="#58009D"/>
</linearGradient>
<linearGradient id="paint9_linear_975_3" x1="50.5186" y1="35.5261" x2="50.2438" y2="60.7869" gradientUnits="userSpaceOnUse">
<stop stop-color="#7102FE" stop-opacity="0.34"/>
<stop offset="1" stop-color="#07E1FF" stop-opacity="0"/>
</linearGradient>
</defs>
</svg>
